<?xml version="1.0" encoding="UTF-8"?>
<svg xmlns="http://www.w3.org/2000/svg" xmlns:xlink="http://www.w3.org/1999/xlink" width="432pt" height="266pt" viewBox="0 0 432 266" version="1.1">
<g id="surface7">
<rect x="0" y="0" width="432" height="266" style="fill:rgb(100%,100%,100%);fill-opacity:1;stroke:none;"/>
<path style=" stroke:none;fill-rule:nonzero;fill:rgb(100%,0%,0%);fill-opacity:1;" d="M 314.519531 133 L 314.488281 130.574219 L 216 133 Z M 314.519531 133 "/>
<path style=" stroke:none;fill-rule:nonzero;fill:rgb(100%,2.352941%,0%);fill-opacity:1;" d="M 314.488281 130.574219 L 314.398438 128.148438 L 216 133 Z M 314.488281 130.574219 "/>
<path style=" stroke:none;fill-rule:nonzero;fill:rgb(100%,4.705882%,0%);fill-opacity:1;" d="M 314.398438 128.148438 L 314.25 125.722656 L 216 133 Z M 314.398438 128.148438 "/>
<path style=" stroke:none;fill-rule:nonzero;fill:rgb(100%,7.058824%,0%);fill-opacity:1;" d="M 314.25 125.722656 L 314.039062 123.304688 L 216 133 Z M 314.25 125.722656 "/>
<path style=" stroke:none;fill-rule:nonzero;fill:rgb(100%,9.411765%,0%);fill-opacity:1;" d="M 314.039062 123.304688 L 313.773438 120.894531 L 216 133 Z M 314.039062 123.304688 "/>
<path style=" stroke:none;fill-rule:nonzero;fill:rgb(100%,11.764706%,0%);fill-opacity:1;" d="M 313.773438 120.894531 L 313.445312 118.488281 L 216 133 Z M 313.773438 120.894531 "/>
<path style=" stroke:none;fill-rule:nonzero;fill:rgb(100%,14.117647%,0%);fill-opacity:1;" d="M 313.445312 118.488281 L 313.058594 116.089844 L 216 133 Z M 313.445312 118.488281 "/>
<path style=" stroke:none;fill-rule:nonzero;fill:rgb(100%,16.470588%,0%);fill-opacity:1;" d="M 313.058594 116.089844 L 312.609375 113.707031 L 216 133 Z M 313.058594 116.089844 "/>
<path style=" stroke:none;fill-rule:nonzero;fill:rgb(100%,18.823529%,0%);fill-opacity:1;" d="M 312.609375 113.707031 L 312.105469 111.332031 L 216 133 Z M 312.609375 113.707031 "/>
<path style=" stroke:none;fill-rule:nonzero;fill:rgb(100%,21.176471%,0%);fill-opacity:1;" d="M 312.105469 111.332031 L 311.542969 108.96875 L 216 133 Z M 312.105469 111.332031 "/>
<path style=" stroke:none;fill-rule:nonzero;fill:rgb(100%,23.529412%,0%);fill-opacity:1;" d="M 311.542969 108.96875 L 310.921875 106.625 L 216 133 Z M 311.542969 108.96875 "/>
<path style=" stroke:none;fill-rule:nonzero;fill:rgb(100%,25.882353%,0%);fill-opacity:1;" d="M 310.921875 106.625 L 310.242188 104.292969 L 216 133 Z M 310.921875 106.625 "/>
<path style=" stroke:none;fill-rule:nonzero;fill:rgb(100%,28.235294%,0%);fill-opacity:1;" d="M 310.242188 104.292969 L 309.507812 101.980469 L 216 133 Z M 310.242188 104.292969 "/>
<path style=" stroke:none;fill-rule:nonzero;fill:rgb(100%,30.588235%,0%);fill-opacity:1;" d="M 309.507812 101.980469 L 308.714844 99.683594 L 216 133 Z M 309.507812 101.980469 "/>
<path style=" stroke:none;fill-rule:nonzero;fill:rgb(100%,32.941176%,0%);fill-opacity:1;" d="M 308.714844 99.683594 L 307.867188 97.410156 L 216 133 Z M 308.714844 99.683594 "/>
<path style=" stroke:none;fill-rule:nonzero;fill:rgb(100%,35.294118%,0%);fill-opacity:1;" d="M 307.867188 97.410156 L 306.960938 95.160156 L 216 133 Z M 307.867188 97.410156 "/>
<path style=" stroke:none;fill-rule:nonzero;fill:rgb(100%,37.647059%,0%);fill-opacity:1;" d="M 306.960938 95.160156 L 306 92.929688 L 216 133 Z M 306.960938 95.160156 "/>
<path style=" stroke:none;fill-rule:nonzero;fill:rgb(100%,40%,0%);fill-opacity:1;" d="M 306 92.929688 L 304.988281 90.722656 L 216 133 Z M 306 92.929688 "/>
<path style=" stroke:none;fill-rule:nonzero;fill:rgb(100%,42.352941%,0%);fill-opacity:1;" d="M 304.988281 90.722656 L 303.917969 88.542969 L 216 133 Z M 304.988281 90.722656 "/>
<path style=" stroke:none;fill-rule:nonzero;fill:rgb(100%,44.705882%,0%);fill-opacity:1;" d="M 303.917969 88.542969 L 302.796875 86.390625 L 216 133 Z M 303.917969 88.542969 "/>
<path style=" stroke:none;fill-rule:nonzero;fill:rgb(100%,47.058824%,0%);fill-opacity:1;" d="M 302.796875 86.390625 L 301.621094 84.265625 L 216 133 Z M 302.796875 86.390625 "/>
<path style=" stroke:none;fill-rule:nonzero;fill:rgb(100%,49.411765%,0%);fill-opacity:1;" d="M 301.621094 84.265625 L 300.394531 82.171875 L 216 133 Z M 301.621094 84.265625 "/>
<path style=" stroke:none;fill-rule:nonzero;fill:rgb(100%,51.764706%,0%);fill-opacity:1;" d="M 300.394531 82.171875 L 299.117188 80.109375 L 216 133 Z M 300.394531 82.171875 "/>
<path style=" stroke:none;fill-rule:nonzero;fill:rgb(100%,54.117647%,0%);fill-opacity:1;" d="M 299.117188 80.109375 L 297.789062 78.078125 L 216 133 Z M 299.117188 80.109375 "/>
<path style=" stroke:none;fill-rule:nonzero;fill:rgb(100%,56.470588%,0%);fill-opacity:1;" d="M 297.789062 78.078125 L 296.410156 76.078125 L 216 133 Z M 297.789062 78.078125 "/>
<path style=" stroke:none;fill-rule:nonzero;fill:rgb(100%,58.823529%,0%);fill-opacity:1;" d="M 296.410156 76.078125 L 294.984375 74.113281 L 216 133 Z M 296.410156 76.078125 "/>
<path style=" stroke:none;fill-rule:nonzero;fill:rgb(100%,61.176471%,0%);fill-opacity:1;" d="M 294.984375 74.113281 L 293.507812 72.1875 L 216 133 Z M 294.984375 74.113281 "/>
<path style=" stroke:none;fill-rule:nonzero;fill:rgb(100%,63.529412%,0%);fill-opacity:1;" d="M 293.507812 72.1875 L 291.988281 70.296875 L 216 133 Z M 293.507812 72.1875 "/>
<path style=" stroke:none;fill-rule:nonzero;fill:rgb(100%,65.882353%,0%);fill-opacity:1;" d="M 291.988281 70.296875 L 290.417969 68.441406 L 216 133 Z M 291.988281 70.296875 "/>
<path style=" stroke:none;fill-rule:nonzero;fill:rgb(100%,68.235294%,0%);fill-opacity:1;" d="M 290.417969 68.441406 L 288.804688 66.628906 L 216 133 Z M 290.417969 68.441406 "/>
<path style=" stroke:none;fill-rule:nonzero;fill:rgb(100%,70.588235%,0%);fill-opacity:1;" d="M 288.804688 66.628906 L 287.148438 64.855469 L 216 133 Z M 288.804688 66.628906 "/>
<path style=" stroke:none;fill-rule:nonzero;fill:rgb(100%,72.941176%,0%);fill-opacity:1;" d="M 287.148438 64.855469 L 285.449219 63.121094 L 216 133 Z M 287.148438 64.855469 "/>
<path style=" stroke:none;fill-rule:nonzero;fill:rgb(100%,75.294118%,0%);fill-opacity:1;" d="M 285.449219 63.121094 L 283.707031 61.433594 L 216 133 Z M 285.449219 63.121094 "/>
<path style=" stroke:none;fill-rule:nonzero;fill:rgb(100%,77.647059%,0%);fill-opacity:1;" d="M 283.707031 61.433594 L 281.921875 59.785156 L 216 133 Z M 283.707031 61.433594 "/>
<path style=" stroke:none;fill-rule:nonzero;fill:rgb(100%,80%,0%);fill-opacity:1;" d="M 281.921875 59.785156 L 280.097656 58.183594 L 216 133 Z M 281.921875 59.785156 "/>
<path style=" stroke:none;fill-rule:nonzero;fill:rgb(100%,82.352941%,0%);fill-opacity:1;" d="M 280.097656 58.183594 L 278.234375 56.628906 L 216 133 Z M 280.097656 58.183594 "/>
<path style=" stroke:none;fill-rule:nonzero;fill:rgb(100%,84.705882%,0%);fill-opacity:1;" d="M 278.234375 56.628906 L 276.335938 55.117188 L 216 133 Z M 278.234375 56.628906 "/>
<path style=" stroke:none;fill-rule:nonzero;fill:rgb(100%,87.058824%,0%);fill-opacity:1;" d="M 276.335938 55.117188 L 274.398438 53.65625 L 216 133 Z M 276.335938 55.117188 "/>
<path style=" stroke:none;fill-rule:nonzero;fill:rgb(100%,89.411765%,0%);fill-opacity:1;" d="M 274.398438 53.65625 L 272.425781 52.242188 L 216 133 Z M 274.398438 53.65625 "/>
<path style=" stroke:none;fill-rule:nonzero;fill:rgb(100%,91.764706%,0%);fill-opacity:1;" d="M 272.425781 52.242188 L 270.417969 50.875 L 216 133 Z M 272.425781 52.242188 "/>
<path style=" stroke:none;fill-rule:nonzero;fill:rgb(100%,94.117647%,0%);fill-opacity:1;" d="M 270.417969 50.875 L 268.378906 49.558594 L 216 133 Z M 270.417969 50.875 "/>
<path style=" stroke:none;fill-rule:nonzero;fill:rgb(100%,96.470588%,0%);fill-opacity:1;" d="M 268.378906 49.558594 L 266.304688 48.292969 L 216 133 Z M 268.378906 49.558594 "/>
<path style=" stroke:none;fill-rule:nonzero;fill:rgb(100%,98.823529%,0%);fill-opacity:1;" d="M 266.304688 48.292969 L 264.203125 47.078125 L 216 133 Z M 266.304688 48.292969 "/>
<path style=" stroke:none;fill-rule:nonzero;fill:rgb(98.823529%,100%,0%);fill-opacity:1;" d="M 264.203125 47.078125 L 262.074219 45.917969 L 216 133 Z M 264.203125 47.078125 "/>
<path style=" stroke:none;fill-rule:nonzero;fill:rgb(96.470588%,100%,0%);fill-opacity:1;" d="M 262.074219 45.917969 L 259.914062 44.808594 L 216 133 Z M 262.074219 45.917969 "/>
<path style=" stroke:none;fill-rule:nonzero;fill:rgb(94.117647%,100%,0%);fill-opacity:1;" d="M 259.914062 44.808594 L 257.726562 43.753906 L 216 133 Z M 259.914062 44.808594 "/>
<path style=" stroke:none;fill-rule:nonzero;fill:rgb(91.764706%,100%,0%);fill-opacity:1;" d="M 257.726562 43.753906 L 255.515625 42.753906 L 216 133 Z M 257.726562 43.753906 "/>
<path style=" stroke:none;fill-rule:nonzero;fill:rgb(89.411765%,100%,0%);fill-opacity:1;" d="M 255.515625 42.753906 L 253.28125 41.808594 L 216 133 Z M 255.515625 42.753906 "/>
<path style=" stroke:none;fill-rule:nonzero;fill:rgb(87.058824%,100%,0%);fill-opacity:1;" d="M 253.28125 41.808594 L 251.023438 40.917969 L 216 133 Z M 253.28125 41.808594 "/>
<path style=" stroke:none;fill-rule:nonzero;fill:rgb(84.705882%,100%,0%);fill-opacity:1;" d="M 251.023438 40.917969 L 248.742188 40.082031 L 216 133 Z M 251.023438 40.917969 "/>
<path style=" stroke:none;fill-rule:nonzero;fill:rgb(82.352941%,100%,0%);fill-opacity:1;" d="M 248.742188 40.082031 L 246.445312 39.304688 L 216 133 Z M 248.742188 40.082031 "/>
<path style=" stroke:none;fill-rule:nonzero;fill:rgb(80%,100%,0%);fill-opacity:1;" d="M 246.445312 39.304688 L 244.125 38.582031 L 216 133 Z M 246.445312 39.304688 "/>
<path style=" stroke:none;fill-rule:nonzero;fill:rgb(77.647059%,100%,0%);fill-opacity:1;" d="M 244.125 38.582031 L 241.792969 37.917969 L 216 133 Z M 244.125 38.582031 "/>
<path style=" stroke:none;fill-rule:nonzero;fill:rgb(75.294118%,100%,0%);fill-opacity:1;" d="M 241.792969 37.917969 L 239.441406 37.3125 L 216 133 Z M 241.792969 37.917969 "/>
<path style=" stroke:none;fill-rule:nonzero;fill:rgb(72.941176%,100%,0%);fill-opacity:1;" d="M 239.441406 37.3125 L 237.078125 36.761719 L 216 133 Z M 239.441406 37.3125 "/>
<path style=" stroke:none;fill-rule:nonzero;fill:rgb(70.588235%,100%,0%);fill-opacity:1;" d="M 237.078125 36.761719 L 234.699219 36.273438 L 216 133 Z M 237.078125 36.761719 "/>
<path style=" stroke:none;fill-rule:nonzero;fill:rgb(68.235294%,100%,0%);fill-opacity:1;" d="M 234.699219 36.273438 L 232.308594 35.839844 L 216 133 Z M 234.699219 36.273438 "/>
<path style=" stroke:none;fill-rule:nonzero;fill:rgb(65.882353%,100%,0%);fill-opacity:1;" d="M 232.308594 35.839844 L 229.910156 35.46875 L 216 133 Z M 232.308594 35.839844 "/>
<path style=" stroke:none;fill-rule:nonzero;fill:rgb(63.529412%,100%,0%);fill-opacity:1;" d="M 229.910156 35.46875 L 227.503906 35.15625 L 216 133 Z M 229.910156 35.46875 "/>
<path style=" stroke:none;fill-rule:nonzero;fill:rgb(61.176471%,100%,0%);fill-opacity:1;" d="M 227.503906 35.15625 L 225.089844 34.902344 L 216 133 Z M 227.503906 35.15625 "/>
<path style=" stroke:none;fill-rule:nonzero;fill:rgb(58.823529%,100%,0%);fill-opacity:1;" d="M 225.089844 34.902344 L 222.671875 34.707031 L 216 133 Z M 225.089844 34.902344 "/>
<path style=" stroke:none;fill-rule:nonzero;fill:rgb(56.470588%,100%,0%);fill-opacity:1;" d="M 222.671875 34.707031 L 220.246094 34.574219 L 216 133 Z M 222.671875 34.707031 "/>
<path style=" stroke:none;fill-rule:nonzero;fill:rgb(54.117647%,100%,0%);fill-opacity:1;" d="M 220.246094 34.574219 L 217.820312 34.5 L 216 133 Z M 220.246094 34.574219 "/>
<path style=" stroke:none;fill-rule:nonzero;fill:rgb(51.764706%,100%,0%);fill-opacity:1;" d="M 217.820312 34.5 L 215.394531 34.484375 L 216 133 Z M 217.820312 34.5 "/>
<path style=" stroke:none;fill-rule:nonzero;fill:rgb(49.411765%,100%,0%);fill-opacity:1;" d="M 215.394531 34.484375 L 212.964844 34.527344 L 216 133 Z M 215.394531 34.484375 "/>
<path style=" stroke:none;fill-rule:nonzero;fill:rgb(47.058824%,100%,0%);fill-opacity:1;" d="M 212.964844 34.527344 L 210.539062 34.632812 L 216 133 Z M 212.964844 34.527344 "/>
<path style=" stroke:none;fill-rule:nonzero;fill:rgb(44.705882%,100%,0%);fill-opacity:1;" d="M 210.539062 34.632812 L 208.117188 34.796875 L 216 133 Z M 210.539062 34.632812 "/>
<path style=" stroke:none;fill-rule:nonzero;fill:rgb(42.352941%,100%,0%);fill-opacity:1;" d="M 208.117188 34.796875 L 205.703125 35.019531 L 216 133 Z M 208.117188 34.796875 "/>
<path style=" stroke:none;fill-rule:nonzero;fill:rgb(40%,100%,0%);fill-opacity:1;" d="M 205.703125 35.019531 L 203.292969 35.304688 L 216 133 Z M 205.703125 35.019531 "/>
<path style=" stroke:none;fill-rule:nonzero;fill:rgb(37.647059%,100%,0%);fill-opacity:1;" d="M 203.292969 35.304688 L 200.886719 35.648438 L 216 133 Z M 203.292969 35.304688 "/>
<path style=" stroke:none;fill-rule:nonzero;fill:rgb(35.294118%,100%,0%);fill-opacity:1;" d="M 200.886719 35.648438 L 198.496094 36.050781 L 216 133 Z M 200.886719 35.648438 "/>
<path style=" stroke:none;fill-rule:nonzero;fill:rgb(32.941176%,100%,0%);fill-opacity:1;" d="M 198.496094 36.050781 L 196.109375 36.511719 L 216 133 Z M 198.496094 36.050781 "/>
<path style=" stroke:none;fill-rule:nonzero;fill:rgb(30.588235%,100%,0%);fill-opacity:1;" d="M 196.109375 36.511719 L 193.738281 37.03125 L 216 133 Z M 196.109375 36.511719 "/>
<path style=" stroke:none;fill-rule:nonzero;fill:rgb(28.235294%,100%,0%);fill-opacity:1;" d="M 193.738281 37.03125 L 191.382812 37.605469 L 216 133 Z M 193.738281 37.03125 "/>
<path style=" stroke:none;fill-rule:nonzero;fill:rgb(25.882353%,100%,0%);fill-opacity:1;" d="M 191.382812 37.605469 L 189.039062 38.242188 L 216 133 Z M 191.382812 37.605469 "/>
<path style=" stroke:none;fill-rule:nonzero;fill:rgb(23.529412%,100%,0%);fill-opacity:1;" d="M 189.039062 38.242188 L 186.710938 38.933594 L 216 133 Z M 189.039062 38.242188 "/>
<path style=" stroke:none;fill-rule:nonzero;fill:rgb(21.176471%,100%,0%);fill-opacity:1;" d="M 186.710938 38.933594 L 184.402344 39.683594 L 216 133 Z M 186.710938 38.933594 "/>
<path style=" stroke:none;fill-rule:nonzero;fill:rgb(18.823529%,100%,0%);fill-opacity:1;" d="M 184.402344 39.683594 L 182.113281 40.492188 L 216 133 Z M 184.402344 39.683594 "/>
<path style=" stroke:none;fill-rule:nonzero;fill:rgb(16.470588%,100%,0%);fill-opacity:1;" d="M 182.113281 40.492188 L 179.847656 41.355469 L 216 133 Z M 182.113281 40.492188 "/>
<path style=" stroke:none;fill-rule:nonzero;fill:rgb(14.117647%,100%,0%);fill-opacity:1;" d="M 179.847656 41.355469 L 177.597656 42.273438 L 216 133 Z M 179.847656 41.355469 "/>
<path style=" stroke:none;fill-rule:nonzero;fill:rgb(11.764706%,100%,0%);fill-opacity:1;" d="M 177.597656 42.273438 L 175.375 43.246094 L 216 133 Z M 177.597656 42.273438 "/>
<path style=" stroke:none;fill-rule:nonzero;fill:rgb(9.411765%,100%,0%);fill-opacity:1;" d="M 175.375 43.246094 L 173.175781 44.277344 L 216 133 Z M 175.375 43.246094 "/>
<path style=" stroke:none;fill-rule:nonzero;fill:rgb(7.058824%,100%,0%);fill-opacity:1;" d="M 173.175781 44.277344 L 171.003906 45.359375 L 216 133 Z M 173.175781 44.277344 "/>
<path style=" stroke:none;fill-rule:nonzero;fill:rgb(4.705882%,100%,0%);fill-opacity:1;" d="M 171.003906 45.359375 L 168.859375 46.492188 L 216 133 Z M 171.003906 45.359375 "/>
<path style=" stroke:none;fill-rule:nonzero;fill:rgb(2.352941%,100%,0%);fill-opacity:1;" d="M 168.859375 46.492188 L 166.742188 47.679688 L 216 133 Z M 168.859375 46.492188 "/>
<path style=" stroke:none;fill-rule:nonzero;fill:rgb(0%,100%,0%);fill-opacity:1;" d="M 166.742188 47.679688 L 164.652344 48.921875 L 216 133 Z M 166.742188 47.679688 "/>
<path style=" stroke:none;fill-rule:nonzero;fill:rgb(0%,100%,2.352941%);fill-opacity:1;" d="M 164.652344 48.921875 L 162.597656 50.210938 L 216 133 Z M 164.652344 48.921875 "/>
<path style=" stroke:none;fill-rule:nonzero;fill:rgb(0%,100%,4.705882%);fill-opacity:1;" d="M 162.597656 50.210938 L 160.574219 51.550781 L 216 133 Z M 162.597656 50.210938 "/>
<path style=" stroke:none;fill-rule:nonzero;fill:rgb(0%,100%,7.058824%);fill-opacity:1;" d="M 160.574219 51.550781 L 158.585938 52.941406 L 216 133 Z M 160.574219 51.550781 "/>
<path style=" stroke:none;fill-rule:nonzero;fill:rgb(0%,100%,9.411765%);fill-opacity:1;" d="M 158.585938 52.941406 L 156.628906 54.378906 L 216 133 Z M 158.585938 52.941406 "/>
<path style=" stroke:none;fill-rule:nonzero;fill:rgb(0%,100%,11.764706%);fill-opacity:1;" d="M 156.628906 54.378906 L 154.710938 55.867188 L 216 133 Z M 156.628906 54.378906 "/>
<path style=" stroke:none;fill-rule:nonzero;fill:rgb(0%,100%,14.117647%);fill-opacity:1;" d="M 154.710938 55.867188 L 152.828125 57.402344 L 216 133 Z M 154.710938 55.867188 "/>
<path style=" stroke:none;fill-rule:nonzero;fill:rgb(0%,100%,16.470588%);fill-opacity:1;" d="M 152.828125 57.402344 L 150.984375 58.980469 L 216 133 Z M 152.828125 57.402344 "/>
<path style=" stroke:none;fill-rule:nonzero;fill:rgb(0%,100%,18.823529%);fill-opacity:1;" d="M 150.984375 58.980469 L 149.179688 60.605469 L 216 133 Z M 150.984375 58.980469 "/>
<path style=" stroke:none;fill-rule:nonzero;fill:rgb(0%,100%,21.176471%);fill-opacity:1;" d="M 149.179688 60.605469 L 147.417969 62.273438 L 216 133 Z M 149.179688 60.605469 "/>
<path style=" stroke:none;fill-rule:nonzero;fill:rgb(0%,100%,23.529412%);fill-opacity:1;" d="M 147.417969 62.273438 L 145.695312 63.984375 L 216 133 Z M 147.417969 62.273438 "/>
<path style=" stroke:none;fill-rule:nonzero;fill:rgb(0%,100%,25.882353%);fill-opacity:1;" d="M 145.695312 63.984375 L 144.015625 65.738281 L 216 133 Z M 145.695312 63.984375 "/>
<path style=" stroke:none;fill-rule:nonzero;fill:rgb(0%,100%,28.235294%);fill-opacity:1;" d="M 144.015625 65.738281 L 142.382812 67.53125 L 216 133 Z M 144.015625 65.738281 "/>
<path style=" stroke:none;fill-rule:nonzero;fill:rgb(0%,100%,30.588235%);fill-opacity:1;" d="M 142.382812 67.53125 L 140.792969 69.363281 L 216 133 Z M 142.382812 67.53125 "/>
<path style=" stroke:none;fill-rule:nonzero;fill:rgb(0%,100%,32.941176%);fill-opacity:1;" d="M 140.792969 69.363281 L 139.246094 71.238281 L 216 133 Z M 140.792969 69.363281 "/>
<path style=" stroke:none;fill-rule:nonzero;fill:rgb(0%,100%,35.294118%);fill-opacity:1;" d="M 139.246094 71.238281 L 137.746094 73.144531 L 216 133 Z M 139.246094 71.238281 "/>
<path style=" stroke:none;fill-rule:nonzero;fill:rgb(0%,100%,37.647059%);fill-opacity:1;" d="M 137.746094 73.144531 L 136.296875 75.09375 L 216 133 Z M 137.746094 73.144531 "/>
<path style=" stroke:none;fill-rule:nonzero;fill:rgb(0%,100%,40%);fill-opacity:1;" d="M 136.296875 75.09375 L 134.894531 77.074219 L 216 133 Z M 136.296875 75.09375 "/>
<path style=" stroke:none;fill-rule:nonzero;fill:rgb(0%,100%,42.352941%);fill-opacity:1;" d="M 134.894531 77.074219 L 133.542969 79.089844 L 216 133 Z M 134.894531 77.074219 "/>
<path style=" stroke:none;fill-rule:nonzero;fill:rgb(0%,100%,44.705882%);fill-opacity:1;" d="M 133.542969 79.089844 L 132.238281 81.136719 L 216 133 Z M 133.542969 79.089844 "/>
<path style=" stroke:none;fill-rule:nonzero;fill:rgb(0%,100%,47.058824%);fill-opacity:1;" d="M 132.238281 81.136719 L 130.984375 83.214844 L 216 133 Z M 132.238281 81.136719 "/>
<path style=" stroke:none;fill-rule:nonzero;fill:rgb(0%,100%,49.411765%);fill-opacity:1;" d="M 130.984375 83.214844 L 129.785156 85.324219 L 216 133 Z M 130.984375 83.214844 "/>
<path style=" stroke:none;fill-rule:nonzero;fill:rgb(0%,100%,51.764706%);fill-opacity:1;" d="M 129.785156 85.324219 L 128.636719 87.464844 L 216 133 Z M 129.785156 85.324219 "/>
<path style=" stroke:none;fill-rule:nonzero;fill:rgb(0%,100%,54.117647%);fill-opacity:1;" d="M 128.636719 87.464844 L 127.539062 89.628906 L 216 133 Z M 128.636719 87.464844 "/>
<path style=" stroke:none;fill-rule:nonzero;fill:rgb(0%,100%,56.470588%);fill-opacity:1;" d="M 127.539062 89.628906 L 126.5 91.824219 L 216 133 Z M 127.539062 89.628906 "/>
<path style=" stroke:none;fill-rule:nonzero;fill:rgb(0%,100%,58.823529%);fill-opacity:1;" d="M 126.5 91.824219 L 125.511719 94.039062 L 216 133 Z M 126.5 91.824219 "/>
<path style=" stroke:none;fill-rule:nonzero;fill:rgb(0%,100%,61.176471%);fill-opacity:1;" d="M 125.511719 94.039062 L 124.578125 96.28125 L 216 133 Z M 125.511719 94.039062 "/>
<path style=" stroke:none;fill-rule:nonzero;fill:rgb(0%,100%,63.529412%);fill-opacity:1;" d="M 124.578125 96.28125 L 123.703125 98.546875 L 216 133 Z M 124.578125 96.28125 "/>
<path style=" stroke:none;fill-rule:nonzero;fill:rgb(0%,100%,65.882353%);fill-opacity:1;" d="M 123.703125 98.546875 L 122.882812 100.828125 L 216 133 Z M 123.703125 98.546875 "/>
<path style=" stroke:none;fill-rule:nonzero;fill:rgb(0%,100%,68.235294%);fill-opacity:1;" d="M 122.882812 100.828125 L 122.117188 103.132812 L 216 133 Z M 122.882812 100.828125 "/>
<path style=" stroke:none;fill-rule:nonzero;fill:rgb(0%,100%,70.588235%);fill-opacity:1;" d="M 122.117188 103.132812 L 121.410156 105.457031 L 216 133 Z M 122.117188 103.132812 "/>
<path style=" stroke:none;fill-rule:nonzero;fill:rgb(0%,100%,72.941176%);fill-opacity:1;" d="M 121.410156 105.457031 L 120.761719 107.792969 L 216 133 Z M 121.410156 105.457031 "/>
<path style=" stroke:none;fill-rule:nonzero;fill:rgb(0%,100%,75.294118%);fill-opacity:1;" d="M 120.761719 107.792969 L 120.167969 110.148438 L 216 133 Z M 120.761719 107.792969 "/>
<path style=" stroke:none;fill-rule:nonzero;fill:rgb(0%,100%,77.647059%);fill-opacity:1;" d="M 120.167969 110.148438 L 119.632812 112.515625 L 216 133 Z M 120.167969 110.148438 "/>
<path style=" stroke:none;fill-rule:nonzero;fill:rgb(0%,100%,80%);fill-opacity:1;" d="M 119.632812 112.515625 L 119.160156 114.898438 L 216 133 Z M 119.632812 112.515625 "/>
<path style=" stroke:none;fill-rule:nonzero;fill:rgb(0%,100%,82.352941%);fill-opacity:1;" d="M 119.160156 114.898438 L 118.742188 117.289062 L 216 133 Z M 119.160156 114.898438 "/>
<path style=" stroke:none;fill-rule:nonzero;fill:rgb(0%,100%,84.705882%);fill-opacity:1;" d="M 118.742188 117.289062 L 118.386719 119.691406 L 216 133 Z M 118.742188 117.289062 "/>
<path style=" stroke:none;fill-rule:nonzero;fill:rgb(0%,100%,87.058824%);fill-opacity:1;" d="M 118.386719 119.691406 L 118.085938 122.097656 L 216 133 Z M 118.386719 119.691406 "/>
<path style=" stroke:none;fill-rule:nonzero;fill:rgb(0%,100%,89.411765%);fill-opacity:1;" d="M 118.085938 122.097656 L 117.847656 124.515625 L 216 133 Z M 118.085938 122.097656 "/>
<path style=" stroke:none;fill-rule:nonzero;fill:rgb(0%,100%,91.764706%);fill-opacity:1;" d="M 117.847656 124.515625 L 117.667969 126.933594 L 216 133 Z M 117.847656 124.515625 "/>
<path style=" stroke:none;fill-rule:nonzero;fill:rgb(0%,100%,94.117647%);fill-opacity:1;" d="M 117.667969 126.933594 L 117.546875 129.359375 L 216 133 Z M 117.667969 126.933594 "/>
<path style=" stroke:none;fill-rule:nonzero;fill:rgb(0%,100%,96.470588%);fill-opacity:1;" d="M 117.546875 129.359375 L 117.488281 131.785156 L 216 133 Z M 117.546875 129.359375 "/>
<path style=" stroke:none;fill-rule:nonzero;fill:rgb(0%,100%,98.823529%);fill-opacity:1;" d="M 117.488281 131.785156 L 117.488281 134.214844 L 216 133 Z M 117.488281 131.785156 "/>
<path style=" stroke:none;fill-rule:nonzero;fill:rgb(0%,98.823529%,100%);fill-opacity:1;" d="M 117.488281 134.214844 L 117.546875 136.640625 L 216 133 Z M 117.488281 134.214844 "/>
<path style=" stroke:none;fill-rule:nonzero;fill:rgb(0%,96.470588%,100%);fill-opacity:1;" d="M 117.546875 136.640625 L 117.667969 139.066406 L 216 133 Z M 117.546875 136.640625 "/>
<path style=" stroke:none;fill-rule:nonzero;fill:rgb(0%,94.117647%,100%);fill-opacity:1;" d="M 117.667969 139.066406 L 117.847656 141.484375 L 216 133 Z M 117.667969 139.066406 "/>
<path style=" stroke:none;fill-rule:nonzero;fill:rgb(0%,91.764706%,100%);fill-opacity:1;" d="M 117.847656 141.484375 L 118.085938 143.902344 L 216 133 Z M 117.847656 141.484375 "/>
<path style=" stroke:none;fill-rule:nonzero;fill:rgb(0%,89.411765%,100%);fill-opacity:1;" d="M 118.085938 143.902344 L 118.386719 146.308594 L 216 133 Z M 118.085938 143.902344 "/>
<path style=" stroke:none;fill-rule:nonzero;fill:rgb(0%,87.058824%,100%);fill-opacity:1;" d="M 118.386719 146.308594 L 118.742188 148.710938 L 216 133 Z M 118.386719 146.308594 "/>
<path style=" stroke:none;fill-rule:nonzero;fill:rgb(0%,84.705882%,100%);fill-opacity:1;" d="M 118.742188 148.710938 L 119.160156 151.101562 L 216 133 Z M 118.742188 148.710938 "/>
<path style=" stroke:none;fill-rule:nonzero;fill:rgb(0%,82.352941%,100%);fill-opacity:1;" d="M 119.160156 151.101562 L 119.632812 153.484375 L 216 133 Z M 119.160156 151.101562 "/>
<path style=" stroke:none;fill-rule:nonzero;fill:rgb(0%,80%,100%);fill-opacity:1;" d="M 119.632812 153.484375 L 120.167969 155.851562 L 216 133 Z M 119.632812 153.484375 "/>
<path style=" stroke:none;fill-rule:nonzero;fill:rgb(0%,77.647059%,100%);fill-opacity:1;" d="M 120.167969 155.851562 L 120.761719 158.207031 L 216 133 Z M 120.167969 155.851562 "/>
<path style=" stroke:none;fill-rule:nonzero;fill:rgb(0%,75.294118%,100%);fill-opacity:1;" d="M 120.761719 158.207031 L 121.410156 160.542969 L 216 133 Z M 120.761719 158.207031 "/>
<path style=" stroke:none;fill-rule:nonzero;fill:rgb(0%,72.941176%,100%);fill-opacity:1;" d="M 121.410156 160.542969 L 122.117188 162.867188 L 216 133 Z M 121.410156 160.542969 "/>
<path style=" stroke:none;fill-rule:nonzero;fill:rgb(0%,70.588235%,100%);fill-opacity:1;" d="M 122.117188 162.867188 L 122.882812 165.171875 L 216 133 Z M 122.117188 162.867188 "/>
<path style=" stroke:none;fill-rule:nonzero;fill:rgb(0%,68.235294%,100%);fill-opacity:1;" d="M 122.882812 165.171875 L 123.703125 167.453125 L 216 133 Z M 122.882812 165.171875 "/>
<path style=" stroke:none;fill-rule:nonzero;fill:rgb(0%,65.882353%,100%);fill-opacity:1;" d="M 123.703125 167.453125 L 124.578125 169.71875 L 216 133 Z M 123.703125 167.453125 "/>
<path style=" stroke:none;fill-rule:nonzero;fill:rgb(0%,63.529412%,100%);fill-opacity:1;" d="M 124.578125 169.71875 L 125.511719 171.960938 L 216 133 Z M 124.578125 169.71875 "/>
<path style=" stroke:none;fill-rule:nonzero;fill:rgb(0%,61.176471%,100%);fill-opacity:1;" d="M 125.511719 171.960938 L 126.5 174.175781 L 216 133 Z M 125.511719 171.960938 "/>
<path style=" stroke:none;fill-rule:nonzero;fill:rgb(0%,58.823529%,100%);fill-opacity:1;" d="M 126.5 174.175781 L 127.539062 176.371094 L 216 133 Z M 126.5 174.175781 "/>
<path style=" stroke:none;fill-rule:nonzero;fill:rgb(0%,56.470588%,100%);fill-opacity:1;" d="M 127.539062 176.371094 L 128.636719 178.535156 L 216 133 Z M 127.539062 176.371094 "/>
<path style=" stroke:none;fill-rule:nonzero;fill:rgb(0%,54.117647%,100%);fill-opacity:1;" d="M 128.636719 178.535156 L 129.785156 180.675781 L 216 133 Z M 128.636719 178.535156 "/>
<path style=" stroke:none;fill-rule:nonzero;fill:rgb(0%,51.764706%,100%);fill-opacity:1;" d="M 129.785156 180.675781 L 130.984375 182.785156 L 216 133 Z M 129.785156 180.675781 "/>
<path style=" stroke:none;fill-rule:nonzero;fill:rgb(0%,49.411765%,100%);fill-opacity:1;" d="M 130.984375 182.785156 L 132.238281 184.863281 L 216 133 Z M 130.984375 182.785156 "/>
<path style=" stroke:none;fill-rule:nonzero;fill:rgb(0%,47.058824%,100%);fill-opacity:1;" d="M 132.238281 184.863281 L 133.542969 186.910156 L 216 133 Z M 132.238281 184.863281 "/>
<path style=" stroke:none;fill-rule:nonzero;fill:rgb(0%,44.705882%,100%);fill-opacity:1;" d="M 133.542969 186.910156 L 134.894531 188.925781 L 216 133 Z M 133.542969 186.910156 "/>
<path style=" stroke:none;fill-rule:nonzero;fill:rgb(0%,42.352941%,100%);fill-opacity:1;" d="M 134.894531 188.925781 L 136.296875 190.90625 L 216 133 Z M 134.894531 188.925781 "/>
<path style=" stroke:none;fill-rule:nonzero;fill:rgb(0%,40%,100%);fill-opacity:1;" d="M 136.296875 190.90625 L 137.746094 192.855469 L 216 133 Z M 136.296875 190.90625 "/>
<path style=" stroke:none;fill-rule:nonzero;fill:rgb(0%,37.647059%,100%);fill-opacity:1;" d="M 137.746094 192.855469 L 139.246094 194.761719 L 216 133 Z M 137.746094 192.855469 "/>
<path style=" stroke:none;fill-rule:nonzero;fill:rgb(0%,35.294118%,100%);fill-opacity:1;" d="M 139.246094 194.761719 L 140.792969 196.636719 L 216 133 Z M 139.246094 194.761719 "/>
<path style=" stroke:none;fill-rule:nonzero;fill:rgb(0%,32.941176%,100%);fill-opacity:1;" d="M 140.792969 196.636719 L 142.382812 198.46875 L 216 133 Z M 140.792969 196.636719 "/>
<path style=" stroke:none;fill-rule:nonzero;fill:rgb(0%,30.588235%,100%);fill-opacity:1;" d="M 142.382812 198.46875 L 144.015625 200.261719 L 216 133 Z M 142.382812 198.46875 "/>
<path style=" stroke:none;fill-rule:nonzero;fill:rgb(0%,28.235294%,100%);fill-opacity:1;" d="M 144.015625 200.261719 L 145.695312 202.015625 L 216 133 Z M 144.015625 200.261719 "/>
<path style=" stroke:none;fill-rule:nonzero;fill:rgb(0%,25.882353%,100%);fill-opacity:1;" d="M 145.695312 202.015625 L 147.417969 203.726562 L 216 133 Z M 145.695312 202.015625 "/>
<path style=" stroke:none;fill-rule:nonzero;fill:rgb(0%,23.529412%,100%);fill-opacity:1;" d="M 147.417969 203.726562 L 149.179688 205.394531 L 216 133 Z M 147.417969 203.726562 "/>
<path style=" stroke:none;fill-rule:nonzero;fill:rgb(0%,21.176471%,100%);fill-opacity:1;" d="M 149.179688 205.394531 L 150.984375 207.019531 L 216 133 Z M 149.179688 205.394531 "/>
<path style=" stroke:none;fill-rule:nonzero;fill:rgb(0%,18.823529%,100%);fill-opacity:1;" d="M 150.984375 207.019531 L 152.828125 208.597656 L 216 133 Z M 150.984375 207.019531 "/>
<path style=" stroke:none;fill-rule:nonzero;fill:rgb(0%,16.470588%,100%);fill-opacity:1;" d="M 152.828125 208.597656 L 154.710938 210.132812 L 216 133 Z M 152.828125 208.597656 "/>
<path style=" stroke:none;fill-rule:nonzero;fill:rgb(0%,14.117647%,100%);fill-opacity:1;" d="M 154.710938 210.132812 L 156.628906 211.621094 L 216 133 Z M 154.710938 210.132812 "/>
<path style=" stroke:none;fill-rule:nonzero;fill:rgb(0%,11.764706%,100%);fill-opacity:1;" d="M 156.628906 211.621094 L 158.585938 213.058594 L 216 133 Z M 156.628906 211.621094 "/>
<path style=" stroke:none;fill-rule:nonzero;fill:rgb(0%,9.411765%,100%);fill-opacity:1;" d="M 158.585938 213.058594 L 160.574219 214.449219 L 216 133 Z M 158.585938 213.058594 "/>
<path style=" stroke:none;fill-rule:nonzero;fill:rgb(0%,7.058824%,100%);fill-opacity:1;" d="M 160.574219 214.449219 L 162.597656 215.789062 L 216 133 Z M 160.574219 214.449219 "/>
<path style=" stroke:none;fill-rule:nonzero;fill:rgb(0%,4.705882%,100%);fill-opacity:1;" d="M 162.597656 215.789062 L 164.652344 217.078125 L 216 133 Z M 162.597656 215.789062 "/>
<path style=" stroke:none;fill-rule:nonzero;fill:rgb(0%,2.352941%,100%);fill-opacity:1;" d="M 164.652344 217.078125 L 166.742188 218.320312 L 216 133 Z M 164.652344 217.078125 "/>
<path style=" stroke:none;fill-rule:nonzero;fill:rgb(0%,0%,100%);fill-opacity:1;" d="M 166.742188 218.320312 L 168.859375 219.507812 L 216 133 Z M 166.742188 218.320312 "/>
<path style=" stroke:none;fill-rule:nonzero;fill:rgb(2.352941%,0%,100%);fill-opacity:1;" d="M 168.859375 219.507812 L 171.003906 220.640625 L 216 133 Z M 168.859375 219.507812 "/>
<path style=" stroke:none;fill-rule:nonzero;fill:rgb(4.705882%,0%,100%);fill-opacity:1;" d="M 171.003906 220.640625 L 173.175781 221.722656 L 216 133 Z M 171.003906 220.640625 "/>
<path style=" stroke:none;fill-rule:nonzero;fill:rgb(7.058824%,0%,100%);fill-opacity:1;" d="M 173.175781 221.722656 L 175.375 222.753906 L 216 133 Z M 173.175781 221.722656 "/>
<path style=" stroke:none;fill-rule:nonzero;fill:rgb(9.411765%,0%,100%);fill-opacity:1;" d="M 175.375 222.753906 L 177.597656 223.726562 L 216 133 Z M 175.375 222.753906 "/>
<path style=" stroke:none;fill-rule:nonzero;fill:rgb(11.764706%,0%,100%);fill-opacity:1;" d="M 177.597656 223.726562 L 179.847656 224.644531 L 216 133 Z M 177.597656 223.726562 "/>
<path style=" stroke:none;fill-rule:nonzero;fill:rgb(14.117647%,0%,100%);fill-opacity:1;" d="M 179.847656 224.644531 L 182.113281 225.507812 L 216 133 Z M 179.847656 224.644531 "/>
<path style=" stroke:none;fill-rule:nonzero;fill:rgb(16.470588%,0%,100%);fill-opacity:1;" d="M 182.113281 225.507812 L 184.402344 226.316406 L 216 133 Z M 182.113281 225.507812 "/>
<path style=" stroke:none;fill-rule:nonzero;fill:rgb(18.823529%,0%,100%);fill-opacity:1;" d="M 184.402344 226.316406 L 186.710938 227.066406 L 216 133 Z M 184.402344 226.316406 "/>
<path style=" stroke:none;fill-rule:nonzero;fill:rgb(21.176471%,0%,100%);fill-opacity:1;" d="M 186.710938 227.066406 L 189.039062 227.757812 L 216 133 Z M 186.710938 227.066406 "/>
<path style=" stroke:none;fill-rule:nonzero;fill:rgb(23.529412%,0%,100%);fill-opacity:1;" d="M 189.039062 227.757812 L 191.382812 228.394531 L 216 133 Z M 189.039062 227.757812 "/>
<path style=" stroke:none;fill-rule:nonzero;fill:rgb(25.882353%,0%,100%);fill-opacity:1;" d="M 191.382812 228.394531 L 193.738281 228.96875 L 216 133 Z M 191.382812 228.394531 "/>
<path style=" stroke:none;fill-rule:nonzero;fill:rgb(28.235294%,0%,100%);fill-opacity:1;" d="M 193.738281 228.96875 L 196.109375 229.488281 L 216 133 Z M 193.738281 228.96875 "/>
<path style=" stroke:none;fill-rule:nonzero;fill:rgb(30.588235%,0%,100%);fill-opacity:1;" d="M 196.109375 229.488281 L 198.496094 229.949219 L 216 133 Z M 196.109375 229.488281 "/>
<path style=" stroke:none;fill-rule:nonzero;fill:rgb(32.941176%,0%,100%);fill-opacity:1;" d="M 198.496094 229.949219 L 200.886719 230.351562 L 216 133 Z M 198.496094 229.949219 "/>
<path style=" stroke:none;fill-rule:nonzero;fill:rgb(35.294118%,0%,100%);fill-opacity:1;" d="M 200.886719 230.351562 L 203.292969 230.695312 L 216 133 Z M 200.886719 230.351562 "/>
<path style=" stroke:none;fill-rule:nonzero;fill:rgb(37.647059%,0%,100%);fill-opacity:1;" d="M 203.292969 230.695312 L 205.703125 230.980469 L 216 133 Z M 203.292969 230.695312 "/>
<path style=" stroke:none;fill-rule:nonzero;fill:rgb(40%,0%,100%);fill-opacity:1;" d="M 205.703125 230.980469 L 208.117188 231.203125 L 216 133 Z M 205.703125 230.980469 "/>
<path style=" stroke:none;fill-rule:nonzero;fill:rgb(42.352941%,0%,100%);fill-opacity:1;" d="M 208.117188 231.203125 L 210.539062 231.367188 L 216 133 Z M 208.117188 231.203125 "/>
<path style=" stroke:none;fill-rule:nonzero;fill:rgb(44.705882%,0%,100%);fill-opacity:1;" d="M 210.539062 231.367188 L 212.964844 231.472656 L 216 133 Z M 210.539062 231.367188 "/>
<path style=" stroke:none;fill-rule:nonzero;fill:rgb(47.058824%,0%,100%);fill-opacity:1;" d="M 212.964844 231.472656 L 215.394531 231.515625 L 216 133 Z M 212.964844 231.472656 "/>
<path style=" stroke:none;fill-rule:nonzero;fill:rgb(49.411765%,0%,100%);fill-opacity:1;" d="M 215.394531 231.515625 L 217.820312 231.5 L 216 133 Z M 215.394531 231.515625 "/>
<path style=" stroke:none;fill-rule:nonzero;fill:rgb(51.764706%,0%,100%);fill-opacity:1;" d="M 217.820312 231.5 L 220.246094 231.425781 L 216 133 Z M 217.820312 231.5 "/>
<path style=" stroke:none;fill-rule:nonzero;fill:rgb(54.117647%,0%,100%);fill-opacity:1;" d="M 220.246094 231.425781 L 222.671875 231.292969 L 216 133 Z M 220.246094 231.425781 "/>
<path style=" stroke:none;fill-rule:nonzero;fill:rgb(56.470588%,0%,100%);fill-opacity:1;" d="M 222.671875 231.292969 L 225.089844 231.097656 L 216 133 Z M 222.671875 231.292969 "/>
<path style=" stroke:none;fill-rule:nonzero;fill:rgb(58.823529%,0%,100%);fill-opacity:1;" d="M 225.089844 231.097656 L 227.503906 230.84375 L 216 133 Z M 225.089844 231.097656 "/>
<path style=" stroke:none;fill-rule:nonzero;fill:rgb(61.176471%,0%,100%);fill-opacity:1;" d="M 227.503906 230.84375 L 229.910156 230.53125 L 216 133 Z M 227.503906 230.84375 "/>
<path style=" stroke:none;fill-rule:nonzero;fill:rgb(63.529412%,0%,100%);fill-opacity:1;" d="M 229.910156 230.53125 L 232.308594 230.160156 L 216 133 Z M 229.910156 230.53125 "/>
<path style=" stroke:none;fill-rule:nonzero;fill:rgb(65.882353%,0%,100%);fill-opacity:1;" d="M 232.308594 230.160156 L 234.699219 229.726562 L 216 133 Z M 232.308594 230.160156 "/>
<path style=" stroke:none;fill-rule:nonzero;fill:rgb(68.235294%,0%,100%);fill-opacity:1;" d="M 234.699219 229.726562 L 237.078125 229.238281 L 216 133 Z M 234.699219 229.726562 "/>
<path style=" stroke:none;fill-rule:nonzero;fill:rgb(70.588235%,0%,100%);fill-opacity:1;" d="M 237.078125 229.238281 L 239.441406 228.6875 L 216 133 Z M 237.078125 229.238281 "/>
<path style=" stroke:none;fill-rule:nonzero;fill:rgb(72.941176%,0%,100%);fill-opacity:1;" d="M 239.441406 228.6875 L 241.792969 228.082031 L 216 133 Z M 239.441406 228.6875 "/>
<path style=" stroke:none;fill-rule:nonzero;fill:rgb(75.294118%,0%,100%);fill-opacity:1;" d="M 241.792969 228.082031 L 244.125 227.417969 L 216 133 Z M 241.792969 228.082031 "/>
<path style=" stroke:none;fill-rule:nonzero;fill:rgb(77.647059%,0%,100%);fill-opacity:1;" d="M 244.125 227.417969 L 246.445312 226.695312 L 216 133 Z M 244.125 227.417969 "/>
<path style=" stroke:none;fill-rule:nonzero;fill:rgb(80%,0%,100%);fill-opacity:1;" d="M 246.445312 226.695312 L 248.742188 225.917969 L 216 133 Z M 246.445312 226.695312 "/>
<path style=" stroke:none;fill-rule:nonzero;fill:rgb(82.352941%,0%,100%);fill-opacity:1;" d="M 248.742188 225.917969 L 251.023438 225.082031 L 216 133 Z M 248.742188 225.917969 "/>
<path style=" stroke:none;fill-rule:nonzero;fill:rgb(84.705882%,0%,100%);fill-opacity:1;" d="M 251.023438 225.082031 L 253.28125 224.191406 L 216 133 Z M 251.023438 225.082031 "/>
<path style=" stroke:none;fill-rule:nonzero;fill:rgb(87.058824%,0%,100%);fill-opacity:1;" d="M 253.28125 224.191406 L 255.515625 223.246094 L 216 133 Z M 253.28125 224.191406 "/>
<path style=" stroke:none;fill-rule:nonzero;fill:rgb(89.411765%,0%,100%);fill-opacity:1;" d="M 255.515625 223.246094 L 257.726562 222.246094 L 216 133 Z M 255.515625 223.246094 "/>
<path style=" stroke:none;fill-rule:nonzero;fill:rgb(91.764706%,0%,100%);fill-opacity:1;" d="M 257.726562 222.246094 L 259.914062 221.191406 L 216 133 Z M 257.726562 222.246094 "/>
<path style=" stroke:none;fill-rule:nonzero;fill:rgb(94.117647%,0%,100%);fill-opacity:1;" d="M 259.914062 221.191406 L 262.074219 220.082031 L 216 133 Z M 259.914062 221.191406 "/>
<path style=" stroke:none;fill-rule:nonzero;fill:rgb(96.470588%,0%,100%);fill-opacity:1;" d="M 262.074219 220.082031 L 264.203125 218.921875 L 216 133 Z M 262.074219 220.082031 "/>
<path style=" stroke:none;fill-rule:nonzero;fill:rgb(98.823529%,0%,100%);fill-opacity:1;" d="M 264.203125 218.921875 L 266.304688 217.707031 L 216 133 Z M 264.203125 218.921875 "/>
<path style=" stroke:none;fill-rule:nonzero;fill:rgb(100%,0%,98.823529%);fill-opacity:1;" d="M 266.304688 217.707031 L 268.378906 216.441406 L 216 133 Z M 266.304688 217.707031 "/>
<path style=" stroke:none;fill-rule:nonzero;fill:rgb(100%,0%,96.470588%);fill-opacity:1;" d="M 268.378906 216.441406 L 270.417969 215.125 L 216 133 Z M 268.378906 216.441406 "/>
<path style=" stroke:none;fill-rule:nonzero;fill:rgb(100%,0%,94.117647%);fill-opacity:1;" d="M 270.417969 215.125 L 272.425781 213.757812 L 216 133 Z M 270.417969 215.125 "/>
<path style=" stroke:none;fill-rule:nonzero;fill:rgb(100%,0%,91.764706%);fill-opacity:1;" d="M 272.425781 213.757812 L 274.398438 212.34375 L 216 133 Z M 272.425781 213.757812 "/>
<path style=" stroke:none;fill-rule:nonzero;fill:rgb(100%,0%,89.411765%);fill-opacity:1;" d="M 274.398438 212.34375 L 276.335938 210.882812 L 216 133 Z M 274.398438 212.34375 "/>
<path style=" stroke:none;fill-rule:nonzero;fill:rgb(100%,0%,87.058824%);fill-opacity:1;" d="M 276.335938 210.882812 L 278.234375 209.371094 L 216 133 Z M 276.335938 210.882812 "/>
<path style=" stroke:none;fill-rule:nonzero;fill:rgb(100%,0%,84.705882%);fill-opacity:1;" d="M 278.234375 209.371094 L 280.097656 207.816406 L 216 133 Z M 278.234375 209.371094 "/>
<path style=" stroke:none;fill-rule:nonzero;fill:rgb(100%,0%,82.352941%);fill-opacity:1;" d="M 280.097656 207.816406 L 281.921875 206.214844 L 216 133 Z M 280.097656 207.816406 "/>
<path style=" stroke:none;fill-rule:nonzero;fill:rgb(100%,0%,80%);fill-opacity:1;" d="M 281.921875 206.214844 L 283.707031 204.566406 L 216 133 Z M 281.921875 206.214844 "/>
<path style=" stroke:none;fill-rule:nonzero;fill:rgb(100%,0%,77.647059%);fill-opacity:1;" d="M 283.707031 204.566406 L 285.449219 202.878906 L 216 133 Z M 283.707031 204.566406 "/>
<path style=" stroke:none;fill-rule:nonzero;fill:rgb(100%,0%,75.294118%);fill-opacity:1;" d="M 285.449219 202.878906 L 287.148438 201.144531 L 216 133 Z M 285.449219 202.878906 "/>
<path style=" stroke:none;fill-rule:nonzero;fill:rgb(100%,0%,72.941176%);fill-opacity:1;" d="M 287.148438 201.144531 L 288.804688 199.371094 L 216 133 Z M 287.148438 201.144531 "/>
<path style=" stroke:none;fill-rule:nonzero;fill:rgb(100%,0%,70.588235%);fill-opacity:1;" d="M 288.804688 199.371094 L 290.417969 197.558594 L 216 133 Z M 288.804688 199.371094 "/>
<path style=" stroke:none;fill-rule:nonzero;fill:rgb(100%,0%,68.235294%);fill-opacity:1;" d="M 290.417969 197.558594 L 291.988281 195.703125 L 216 133 Z M 290.417969 197.558594 "/>
<path style=" stroke:none;fill-rule:nonzero;fill:rgb(100%,0%,65.882353%);fill-opacity:1;" d="M 291.988281 195.703125 L 293.507812 193.8125 L 216 133 Z M 291.988281 195.703125 "/>
<path style=" stroke:none;fill-rule:nonzero;fill:rgb(100%,0%,63.529412%);fill-opacity:1;" d="M 293.507812 193.8125 L 294.984375 191.886719 L 216 133 Z M 293.507812 193.8125 "/>
<path style=" stroke:none;fill-rule:nonzero;fill:rgb(100%,0%,61.176471%);fill-opacity:1;" d="M 294.984375 191.886719 L 296.410156 189.921875 L 216 133 Z M 294.984375 191.886719 "/>
<path style=" stroke:none;fill-rule:nonzero;fill:rgb(100%,0%,58.823529%);fill-opacity:1;" d="M 296.410156 189.921875 L 297.789062 187.921875 L 216 133 Z M 296.410156 189.921875 "/>
<path style=" stroke:none;fill-rule:nonzero;fill:rgb(100%,0%,56.470588%);fill-opacity:1;" d="M 297.789062 187.921875 L 299.117188 185.890625 L 216 133 Z M 297.789062 187.921875 "/>
<path style=" stroke:none;fill-rule:nonzero;fill:rgb(100%,0%,54.117647%);fill-opacity:1;" d="M 299.117188 185.890625 L 300.394531 183.828125 L 216 133 Z M 299.117188 185.890625 "/>
<path style=" stroke:none;fill-rule:nonzero;fill:rgb(100%,0%,51.764706%);fill-opacity:1;" d="M 300.394531 183.828125 L 301.621094 181.734375 L 216 133 Z M 300.394531 183.828125 "/>
<path style=" stroke:none;fill-rule:nonzero;fill:rgb(100%,0%,49.411765%);fill-opacity:1;" d="M 301.621094 181.734375 L 302.796875 179.609375 L 216 133 Z M 301.621094 181.734375 "/>
<path style=" stroke:none;fill-rule:nonzero;fill:rgb(100%,0%,47.058824%);fill-opacity:1;" d="M 302.796875 179.609375 L 303.917969 177.457031 L 216 133 Z M 302.796875 179.609375 "/>
<path style=" stroke:none;fill-rule:nonzero;fill:rgb(100%,0%,44.705882%);fill-opacity:1;" d="M 303.917969 177.457031 L 304.988281 175.277344 L 216 133 Z M 303.917969 177.457031 "/>
<path style=" stroke:none;fill-rule:nonzero;fill:rgb(100%,0%,42.352941%);fill-opacity:1;" d="M 304.988281 175.277344 L 306 173.070312 L 216 133 Z M 304.988281 175.277344 "/>
<path style=" stroke:none;fill-rule:nonzero;fill:rgb(100%,0%,40%);fill-opacity:1;" d="M 306 173.070312 L 306.960938 170.839844 L 216 133 Z M 306 173.070312 "/>
<path style=" stroke:none;fill-rule:nonzero;fill:rgb(100%,0%,37.647059%);fill-opacity:1;" d="M 306.960938 170.839844 L 307.867188 168.589844 L 216 133 Z M 306.960938 170.839844 "/>
<path style=" stroke:none;fill-rule:nonzero;fill:rgb(100%,0%,35.294118%);fill-opacity:1;" d="M 307.867188 168.589844 L 308.714844 166.316406 L 216 133 Z M 307.867188 168.589844 "/>
<path style=" stroke:none;fill-rule:nonzero;fill:rgb(100%,0%,32.941176%);fill-opacity:1;" d="M 308.714844 166.316406 L 309.507812 164.019531 L 216 133 Z M 308.714844 166.316406 "/>
<path style=" stroke:none;fill-rule:nonzero;fill:rgb(100%,0%,30.588235%);fill-opacity:1;" d="M 309.507812 164.019531 L 310.242188 161.707031 L 216 133 Z M 309.507812 164.019531 "/>
<path style=" stroke:none;fill-rule:nonzero;fill:rgb(100%,0%,28.235294%);fill-opacity:1;" d="M 310.242188 161.707031 L 310.921875 159.375 L 216 133 Z M 310.242188 161.707031 "/>
<path style=" stroke:none;fill-rule:nonzero;fill:rgb(100%,0%,25.882353%);fill-opacity:1;" d="M 310.921875 159.375 L 311.542969 157.03125 L 216 133 Z M 310.921875 159.375 "/>
<path style=" stroke:none;fill-rule:nonzero;fill:rgb(100%,0%,23.529412%);fill-opacity:1;" d="M 311.542969 157.03125 L 312.105469 154.667969 L 216 133 Z M 311.542969 157.03125 "/>
<path style=" stroke:none;fill-rule:nonzero;fill:rgb(100%,0%,21.176471%);fill-opacity:1;" d="M 312.105469 154.667969 L 312.609375 152.292969 L 216 133 Z M 312.105469 154.667969 "/>
<path style=" stroke:none;fill-rule:nonzero;fill:rgb(100%,0%,18.823529%);fill-opacity:1;" d="M 312.609375 152.292969 L 313.058594 149.910156 L 216 133 Z M 312.609375 152.292969 "/>
<path style=" stroke:none;fill-rule:nonzero;fill:rgb(100%,0%,16.470588%);fill-opacity:1;" d="M 313.058594 149.910156 L 313.445312 147.511719 L 216 133 Z M 313.058594 149.910156 "/>
<path style=" stroke:none;fill-rule:nonzero;fill:rgb(100%,0%,14.117647%);fill-opacity:1;" d="M 313.445312 147.511719 L 313.773438 145.105469 L 216 133 Z M 313.445312 147.511719 "/>
<path style=" stroke:none;fill-rule:nonzero;fill:rgb(100%,0%,11.764706%);fill-opacity:1;" d="M 313.773438 145.105469 L 314.039062 142.695312 L 216 133 Z M 313.773438 145.105469 "/>
<path style=" stroke:none;fill-rule:nonzero;fill:rgb(100%,0%,9.411765%);fill-opacity:1;" d="M 314.039062 142.695312 L 314.25 140.277344 L 216 133 Z M 314.039062 142.695312 "/>
<path style=" stroke:none;fill-rule:nonzero;fill:rgb(100%,0%,7.058824%);fill-opacity:1;" d="M 314.25 140.277344 L 314.398438 137.851562 L 216 133 Z M 314.25 140.277344 "/>
<path style=" stroke:none;fill-rule:nonzero;fill:rgb(100%,0%,4.705882%);fill-opacity:1;" d="M 314.398438 137.851562 L 314.488281 135.425781 L 216 133 Z M 314.398438 137.851562 "/>
<path style=" stroke:none;fill-rule:nonzero;fill:rgb(100%,0%,2.352941%);fill-opacity:1;" d="M 314.488281 135.425781 L 314.519531 133 L 216 133 Z M 314.488281 135.425781 "/>
</g>
</svg>
