<?xml version="1.0" encoding="UTF-8"?>
<svg xmlns="http://www.w3.org/2000/svg" xmlns:xlink="http://www.w3.org/1999/xlink" width="216pt" height="133pt" viewBox="0 0 216 133" version="1.1">
<g id="surface2">
<rect x="0" y="0" width="216" height="133" style="fill:rgb(100%,100%,100%);fill-opacity:1;stroke:none;"/>
<path style="fill-rule:nonzero;fill:rgb(100%,19.607843%,0%);fill-opacity:1;stroke-width:0.75;stroke-linecap:round;stroke-linejoin:round;stroke:rgb(82.745098%,82.745098%,82.745098%);stroke-opacity:1;stroke-miterlimit:10;" d="M 8 128.074219 L 18 128.074219 L 18 4.925781 L 8 4.925781 Z M 8 128.074219 "/>
<path style="fill-rule:nonzero;fill:rgb(97.647059%,30.980392%,12.54902%);fill-opacity:1;stroke-width:0.75;stroke-linecap:round;stroke-linejoin:round;stroke:rgb(82.745098%,82.745098%,82.745098%);stroke-opacity:1;stroke-miterlimit:10;" d="M 18 128.074219 L 28 128.074219 L 28 4.925781 L 18 4.925781 Z M 18 128.074219 "/>
<path style="fill-rule:nonzero;fill:rgb(95.294118%,42.352941%,25.490196%);fill-opacity:1;stroke-width:0.75;stroke-linecap:round;stroke-linejoin:round;stroke:rgb(82.745098%,82.745098%,82.745098%);stroke-opacity:1;stroke-miterlimit:10;" d="M 28 128.074219 L 38 128.074219 L 38 4.925781 L 28 4.925781 Z M 28 128.074219 "/>
<path style="fill-rule:nonzero;fill:rgb(92.941176%,53.72549%,38.039216%);fill-opacity:1;stroke-width:0.75;stroke-linecap:round;stroke-linejoin:round;stroke:rgb(82.745098%,82.745098%,82.745098%);stroke-opacity:1;stroke-miterlimit:10;" d="M 38 128.074219 L 48 128.074219 L 48 4.925781 L 38 4.925781 Z M 38 128.074219 "/>
<path style="fill-rule:nonzero;fill:rgb(91.372549%,64.313725%,49.411765%);fill-opacity:1;stroke-width:0.75;stroke-linecap:round;stroke-linejoin:round;stroke:rgb(82.745098%,82.745098%,82.745098%);stroke-opacity:1;stroke-miterlimit:10;" d="M 48 128.074219 L 58 128.074219 L 58 4.925781 L 48 4.925781 Z M 48 128.074219 "/>
<path style="fill-rule:nonzero;fill:rgb(91.372549%,71.372549%,53.72549%);fill-opacity:1;stroke-width:0.75;stroke-linecap:round;stroke-linejoin:round;stroke:rgb(82.745098%,82.745098%,82.745098%);stroke-opacity:1;stroke-miterlimit:10;" d="M 58 128.074219 L 68 128.074219 L 68 4.925781 L 58 4.925781 Z M 58 128.074219 "/>
<path style="fill-rule:nonzero;fill:rgb(91.372549%,78.039216%,58.039216%);fill-opacity:1;stroke-width:0.75;stroke-linecap:round;stroke-linejoin:round;stroke:rgb(82.745098%,82.745098%,82.745098%);stroke-opacity:1;stroke-miterlimit:10;" d="M 68 128.074219 L 78 128.074219 L 78 4.925781 L 68 4.925781 Z M 68 128.074219 "/>
<path style="fill-rule:nonzero;fill:rgb(91.372549%,85.098039%,62.352941%);fill-opacity:1;stroke-width:0.75;stroke-linecap:round;stroke-linejoin:round;stroke:rgb(82.745098%,82.745098%,82.745098%);stroke-opacity:1;stroke-miterlimit:10;" d="M 78 128.074219 L 88 128.074219 L 88 4.925781 L 78 4.925781 Z M 78 128.074219 "/>
<path style="fill-rule:nonzero;fill:rgb(82.745098%,87.45098%,65.098039%);fill-opacity:1;stroke-width:0.75;stroke-linecap:round;stroke-linejoin:round;stroke:rgb(82.745098%,82.745098%,82.745098%);stroke-opacity:1;stroke-miterlimit:10;" d="M 88 128.074219 L 98 128.074219 L 98 4.925781 L 88 4.925781 Z M 88 128.074219 "/>
<path style="fill-rule:nonzero;fill:rgb(61.568627%,82.745098%,66.27451%);fill-opacity:1;stroke-width:0.75;stroke-linecap:round;stroke-linejoin:round;stroke:rgb(82.745098%,82.745098%,82.745098%);stroke-opacity:1;stroke-miterlimit:10;" d="M 98 128.074219 L 108 128.074219 L 108 4.925781 L 98 4.925781 Z M 98 128.074219 "/>
<path style="fill-rule:nonzero;fill:rgb(40%,77.647059%,67.058824%);fill-opacity:1;stroke-width:0.75;stroke-linecap:round;stroke-linejoin:round;stroke:rgb(82.745098%,82.745098%,82.745098%);stroke-opacity:1;stroke-miterlimit:10;" d="M 108 128.074219 L 118 128.074219 L 118 4.925781 L 108 4.925781 Z M 108 128.074219 "/>
<path style="fill-rule:nonzero;fill:rgb(18.823529%,72.941176%,68.235294%);fill-opacity:1;stroke-width:0.75;stroke-linecap:round;stroke-linejoin:round;stroke:rgb(82.745098%,82.745098%,82.745098%);stroke-opacity:1;stroke-miterlimit:10;" d="M 118 128.074219 L 128 128.074219 L 128 4.925781 L 118 4.925781 Z M 118 128.074219 "/>
<path style="fill-rule:nonzero;fill:rgb(8.627451%,67.058824%,69.019608%);fill-opacity:1;stroke-width:0.75;stroke-linecap:round;stroke-linejoin:round;stroke:rgb(82.745098%,82.745098%,82.745098%);stroke-opacity:1;stroke-miterlimit:10;" d="M 128 128.074219 L 138 128.074219 L 138 4.925781 L 128 4.925781 Z M 128 128.074219 "/>
<path style="fill-rule:nonzero;fill:rgb(5.882353%,60.784314%,70.588235%);fill-opacity:1;stroke-width:0.75;stroke-linecap:round;stroke-linejoin:round;stroke:rgb(82.745098%,82.745098%,82.745098%);stroke-opacity:1;stroke-miterlimit:10;" d="M 138 128.074219 L 148 128.074219 L 148 4.925781 L 138 4.925781 Z M 138 128.074219 "/>
<path style="fill-rule:nonzero;fill:rgb(3.137255%,54.117647%,71.764706%);fill-opacity:1;stroke-width:0.75;stroke-linecap:round;stroke-linejoin:round;stroke:rgb(82.745098%,82.745098%,82.745098%);stroke-opacity:1;stroke-miterlimit:10;" d="M 148 128.074219 L 158 128.074219 L 158 4.925781 L 148 4.925781 Z M 148 128.074219 "/>
<path style="fill-rule:nonzero;fill:rgb(0.392157%,47.45098%,72.941176%);fill-opacity:1;stroke-width:0.75;stroke-linecap:round;stroke-linejoin:round;stroke:rgb(82.745098%,82.745098%,82.745098%);stroke-opacity:1;stroke-miterlimit:10;" d="M 158 128.074219 L 168 128.074219 L 168 4.925781 L 158 4.925781 Z M 158 128.074219 "/>
<path style="fill-rule:nonzero;fill:rgb(1.568627%,39.607843%,66.27451%);fill-opacity:1;stroke-width:0.75;stroke-linecap:round;stroke-linejoin:round;stroke:rgb(82.745098%,82.745098%,82.745098%);stroke-opacity:1;stroke-miterlimit:10;" d="M 168 128.074219 L 178 128.074219 L 178 4.925781 L 168 4.925781 Z M 168 128.074219 "/>
<path style="fill-rule:nonzero;fill:rgb(3.921569%,31.764706%,58.039216%);fill-opacity:1;stroke-width:0.75;stroke-linecap:round;stroke-linejoin:round;stroke:rgb(82.745098%,82.745098%,82.745098%);stroke-opacity:1;stroke-miterlimit:10;" d="M 178 128.074219 L 188 128.074219 L 188 4.925781 L 178 4.925781 Z M 178 128.074219 "/>
<path style="fill-rule:nonzero;fill:rgb(6.27451%,23.529412%,49.411765%);fill-opacity:1;stroke-width:0.75;stroke-linecap:round;stroke-linejoin:round;stroke:rgb(82.745098%,82.745098%,82.745098%);stroke-opacity:1;stroke-miterlimit:10;" d="M 188 128.074219 L 198 128.074219 L 198 4.925781 L 188 4.925781 Z M 188 128.074219 "/>
<path style="fill-rule:nonzero;fill:rgb(9.019608%,15.686275%,41.176471%);fill-opacity:1;stroke-width:0.75;stroke-linecap:round;stroke-linejoin:round;stroke:rgb(82.745098%,82.745098%,82.745098%);stroke-opacity:1;stroke-miterlimit:10;" d="M 198 128.074219 L 208 128.074219 L 208 4.925781 L 198 4.925781 Z M 198 128.074219 "/>
</g>
</svg>
