<?xml version="1.0" encoding="UTF-8"?>
<svg xmlns="http://www.w3.org/2000/svg" xmlns:xlink="http://www.w3.org/1999/xlink" width="576pt" height="355pt" viewBox="0 0 576 355" version="1.1">
<g id="surface85">
<rect x="0" y="0" width="576" height="355" style="fill:rgb(100%,100%,100%);fill-opacity:1;stroke:none;"/>
<path style="fill-rule:nonzero;fill:rgb(0%,0%,1.568627%);fill-opacity:1;stroke-width:0.75;stroke-linecap:round;stroke-linejoin:round;stroke:rgb(82.745098%,82.745098%,82.745098%);stroke-opacity:1;stroke-miterlimit:10;" d="M 21.332031 86.167969 L 54.664062 86.167969 L 54.664062 21.59375 L 21.332031 21.59375 Z M 21.332031 86.167969 "/>
<path style="fill-rule:nonzero;fill:rgb(4.313725%,3.529412%,14.117647%);fill-opacity:1;stroke-width:0.75;stroke-linecap:round;stroke-linejoin:round;stroke:rgb(82.745098%,82.745098%,82.745098%);stroke-opacity:1;stroke-miterlimit:10;" d="M 54.667969 86.167969 L 88 86.167969 L 88 21.59375 L 54.667969 21.59375 Z M 54.667969 86.167969 "/>
<path style="fill-rule:nonzero;fill:rgb(12.54902%,6.666667%,29.411765%);fill-opacity:1;stroke-width:0.75;stroke-linecap:round;stroke-linejoin:round;stroke:rgb(82.745098%,82.745098%,82.745098%);stroke-opacity:1;stroke-miterlimit:10;" d="M 88 86.167969 L 121.332031 86.167969 L 121.332031 21.59375 L 88 21.59375 Z M 88 86.167969 "/>
<path style="fill-rule:nonzero;fill:rgb(23.137255%,5.882353%,43.921569%);fill-opacity:1;stroke-width:0.75;stroke-linecap:round;stroke-linejoin:round;stroke:rgb(82.745098%,82.745098%,82.745098%);stroke-opacity:1;stroke-miterlimit:10;" d="M 121.332031 86.167969 L 154.664062 86.167969 L 154.664062 21.59375 L 121.332031 21.59375 Z M 121.332031 86.167969 "/>
<path style="fill-rule:nonzero;fill:rgb(34.117647%,8.235294%,49.411765%);fill-opacity:1;stroke-width:0.75;stroke-linecap:round;stroke-linejoin:round;stroke:rgb(82.745098%,82.745098%,82.745098%);stroke-opacity:1;stroke-miterlimit:10;" d="M 154.667969 86.167969 L 188 86.167969 L 188 21.59375 L 154.667969 21.59375 Z M 154.667969 86.167969 "/>
<path style="fill-rule:nonzero;fill:rgb(44.705882%,12.156863%,50.588235%);fill-opacity:1;stroke-width:0.75;stroke-linecap:round;stroke-linejoin:round;stroke:rgb(82.745098%,82.745098%,82.745098%);stroke-opacity:1;stroke-miterlimit:10;" d="M 188 86.167969 L 221.332031 86.167969 L 221.332031 21.59375 L 188 21.59375 Z M 188 86.167969 "/>
<path style="fill-rule:nonzero;fill:rgb(54.901961%,16.078431%,50.588235%);fill-opacity:1;stroke-width:0.75;stroke-linecap:round;stroke-linejoin:round;stroke:rgb(82.745098%,82.745098%,82.745098%);stroke-opacity:1;stroke-miterlimit:10;" d="M 221.332031 86.167969 L 254.664062 86.167969 L 254.664062 21.59375 L 221.332031 21.59375 Z M 221.332031 86.167969 "/>
<path style="fill-rule:nonzero;fill:rgb(65.882353%,19.607843%,49.019608%);fill-opacity:1;stroke-width:0.75;stroke-linecap:round;stroke-linejoin:round;stroke:rgb(82.745098%,82.745098%,82.745098%);stroke-opacity:1;stroke-miterlimit:10;" d="M 254.667969 86.167969 L 288 86.167969 L 288 21.59375 L 254.667969 21.59375 Z M 254.667969 86.167969 "/>
<path style="fill-rule:nonzero;fill:rgb(76.862745%,23.529412%,45.882353%);fill-opacity:1;stroke-width:0.75;stroke-linecap:round;stroke-linejoin:round;stroke:rgb(82.745098%,82.745098%,82.745098%);stroke-opacity:1;stroke-miterlimit:10;" d="M 288 86.167969 L 321.332031 86.167969 L 321.332031 21.59375 L 288 21.59375 Z M 288 86.167969 "/>
<path style="fill-rule:nonzero;fill:rgb(87.058824%,28.627451%,40.784314%);fill-opacity:1;stroke-width:0.75;stroke-linecap:round;stroke-linejoin:round;stroke:rgb(82.745098%,82.745098%,82.745098%);stroke-opacity:1;stroke-miterlimit:10;" d="M 321.332031 86.167969 L 354.664062 86.167969 L 354.664062 21.59375 L 321.332031 21.59375 Z M 321.332031 86.167969 "/>
<path style="fill-rule:nonzero;fill:rgb(94.509804%,37.647059%,36.470588%);fill-opacity:1;stroke-width:0.75;stroke-linecap:round;stroke-linejoin:round;stroke:rgb(82.745098%,82.745098%,82.745098%);stroke-opacity:1;stroke-miterlimit:10;" d="M 354.667969 86.167969 L 388 86.167969 L 388 21.59375 L 354.667969 21.59375 Z M 354.667969 86.167969 "/>
<path style="fill-rule:nonzero;fill:rgb(98.039216%,49.803922%,36.862745%);fill-opacity:1;stroke-width:0.75;stroke-linecap:round;stroke-linejoin:round;stroke:rgb(82.745098%,82.745098%,82.745098%);stroke-opacity:1;stroke-miterlimit:10;" d="M 388 86.167969 L 421.332031 86.167969 L 421.332031 21.59375 L 388 21.59375 Z M 388 86.167969 "/>
<path style="fill-rule:nonzero;fill:rgb(99.607843%,62.352941%,42.745098%);fill-opacity:1;stroke-width:0.75;stroke-linecap:round;stroke-linejoin:round;stroke:rgb(82.745098%,82.745098%,82.745098%);stroke-opacity:1;stroke-miterlimit:10;" d="M 421.332031 86.167969 L 454.664062 86.167969 L 454.664062 21.59375 L 421.332031 21.59375 Z M 421.332031 86.167969 "/>
<path style="fill-rule:nonzero;fill:rgb(99.607843%,74.901961%,51.764706%);fill-opacity:1;stroke-width:0.75;stroke-linecap:round;stroke-linejoin:round;stroke:rgb(82.745098%,82.745098%,82.745098%);stroke-opacity:1;stroke-miterlimit:10;" d="M 454.667969 86.167969 L 488 86.167969 L 488 21.59375 L 454.667969 21.59375 Z M 454.667969 86.167969 "/>
<path style="fill-rule:nonzero;fill:rgb(99.215686%,87.058824%,62.745098%);fill-opacity:1;stroke-width:0.75;stroke-linecap:round;stroke-linejoin:round;stroke:rgb(82.745098%,82.745098%,82.745098%);stroke-opacity:1;stroke-miterlimit:10;" d="M 488 86.167969 L 521.332031 86.167969 L 521.332031 21.59375 L 488 21.59375 Z M 488 86.167969 "/>
<path style="fill-rule:nonzero;fill:rgb(98.823529%,99.215686%,74.901961%);fill-opacity:1;stroke-width:0.75;stroke-linecap:round;stroke-linejoin:round;stroke:rgb(82.745098%,82.745098%,82.745098%);stroke-opacity:1;stroke-miterlimit:10;" d="M 521.332031 86.167969 L 554.664062 86.167969 L 554.664062 21.59375 L 521.332031 21.59375 Z M 521.332031 86.167969 "/>
<path style="fill-rule:nonzero;fill:rgb(0%,0%,1.568627%);fill-opacity:1;stroke-width:0.75;stroke-linecap:round;stroke-linejoin:round;stroke:rgb(82.745098%,82.745098%,82.745098%);stroke-opacity:1;stroke-miterlimit:10;" d="M 21.332031 174.917969 L 54.664062 174.917969 L 54.664062 110.34375 L 21.332031 110.34375 Z M 21.332031 174.917969 "/>
<path style="fill-rule:nonzero;fill:rgb(4.705882%,3.137255%,14.901961%);fill-opacity:1;stroke-width:0.75;stroke-linecap:round;stroke-linejoin:round;stroke:rgb(82.745098%,82.745098%,82.745098%);stroke-opacity:1;stroke-miterlimit:10;" d="M 54.667969 174.917969 L 88 174.917969 L 88 110.34375 L 54.667969 110.34375 Z M 54.667969 174.917969 "/>
<path style="fill-rule:nonzero;fill:rgb(14.117647%,4.705882%,30.980392%);fill-opacity:1;stroke-width:0.75;stroke-linecap:round;stroke-linejoin:round;stroke:rgb(82.745098%,82.745098%,82.745098%);stroke-opacity:1;stroke-miterlimit:10;" d="M 88 174.917969 L 121.332031 174.917969 L 121.332031 110.34375 L 88 110.34375 Z M 88 174.917969 "/>
<path style="fill-rule:nonzero;fill:rgb(25.882353%,3.921569%,40.784314%);fill-opacity:1;stroke-width:0.75;stroke-linecap:round;stroke-linejoin:round;stroke:rgb(82.745098%,82.745098%,82.745098%);stroke-opacity:1;stroke-miterlimit:10;" d="M 121.332031 174.917969 L 154.664062 174.917969 L 154.664062 110.34375 L 121.332031 110.34375 Z M 121.332031 174.917969 "/>
<path style="fill-rule:nonzero;fill:rgb(36.470588%,7.058824%,43.137255%);fill-opacity:1;stroke-width:0.75;stroke-linecap:round;stroke-linejoin:round;stroke:rgb(82.745098%,82.745098%,82.745098%);stroke-opacity:1;stroke-miterlimit:10;" d="M 154.667969 174.917969 L 188 174.917969 L 188 110.34375 L 154.667969 110.34375 Z M 154.667969 174.917969 "/>
<path style="fill-rule:nonzero;fill:rgb(47.058824%,10.980392%,42.745098%);fill-opacity:1;stroke-width:0.75;stroke-linecap:round;stroke-linejoin:round;stroke:rgb(82.745098%,82.745098%,82.745098%);stroke-opacity:1;stroke-miterlimit:10;" d="M 188 174.917969 L 221.332031 174.917969 L 221.332031 110.34375 L 188 110.34375 Z M 188 174.917969 "/>
<path style="fill-rule:nonzero;fill:rgb(57.647059%,14.901961%,40.392157%);fill-opacity:1;stroke-width:0.75;stroke-linecap:round;stroke-linejoin:round;stroke:rgb(82.745098%,82.745098%,82.745098%);stroke-opacity:1;stroke-miterlimit:10;" d="M 221.332031 174.917969 L 254.664062 174.917969 L 254.664062 110.34375 L 221.332031 110.34375 Z M 221.332031 174.917969 "/>
<path style="fill-rule:nonzero;fill:rgb(68.235294%,18.823529%,36.078431%);fill-opacity:1;stroke-width:0.75;stroke-linecap:round;stroke-linejoin:round;stroke:rgb(82.745098%,82.745098%,82.745098%);stroke-opacity:1;stroke-miterlimit:10;" d="M 254.667969 174.917969 L 288 174.917969 L 288 110.34375 L 254.667969 110.34375 Z M 254.667969 174.917969 "/>
<path style="fill-rule:nonzero;fill:rgb(78.039216%,24.313725%,29.803922%);fill-opacity:1;stroke-width:0.75;stroke-linecap:round;stroke-linejoin:round;stroke:rgb(82.745098%,82.745098%,82.745098%);stroke-opacity:1;stroke-miterlimit:10;" d="M 288 174.917969 L 321.332031 174.917969 L 321.332031 110.34375 L 288 110.34375 Z M 288 174.917969 "/>
<path style="fill-rule:nonzero;fill:rgb(86.666667%,31.764706%,22.745098%);fill-opacity:1;stroke-width:0.75;stroke-linecap:round;stroke-linejoin:round;stroke:rgb(82.745098%,82.745098%,82.745098%);stroke-opacity:1;stroke-miterlimit:10;" d="M 321.332031 174.917969 L 354.664062 174.917969 L 354.664062 110.34375 L 321.332031 110.34375 Z M 321.332031 174.917969 "/>
<path style="fill-rule:nonzero;fill:rgb(92.941176%,41.176471%,14.509804%);fill-opacity:1;stroke-width:0.75;stroke-linecap:round;stroke-linejoin:round;stroke:rgb(82.745098%,82.745098%,82.745098%);stroke-opacity:1;stroke-miterlimit:10;" d="M 354.667969 174.917969 L 388 174.917969 L 388 110.34375 L 354.667969 110.34375 Z M 354.667969 174.917969 "/>
<path style="fill-rule:nonzero;fill:rgb(97.254902%,52.156863%,5.882353%);fill-opacity:1;stroke-width:0.75;stroke-linecap:round;stroke-linejoin:round;stroke:rgb(82.745098%,82.745098%,82.745098%);stroke-opacity:1;stroke-miterlimit:10;" d="M 388 174.917969 L 421.332031 174.917969 L 421.332031 110.34375 L 388 110.34375 Z M 388 174.917969 "/>
<path style="fill-rule:nonzero;fill:rgb(98.823529%,64.705882%,3.921569%);fill-opacity:1;stroke-width:0.75;stroke-linecap:round;stroke-linejoin:round;stroke:rgb(82.745098%,82.745098%,82.745098%);stroke-opacity:1;stroke-miterlimit:10;" d="M 421.332031 174.917969 L 454.664062 174.917969 L 454.664062 110.34375 L 421.332031 110.34375 Z M 421.332031 174.917969 "/>
<path style="fill-rule:nonzero;fill:rgb(98.039216%,77.647059%,17.647059%);fill-opacity:1;stroke-width:0.75;stroke-linecap:round;stroke-linejoin:round;stroke:rgb(82.745098%,82.745098%,82.745098%);stroke-opacity:1;stroke-miterlimit:10;" d="M 454.667969 174.917969 L 488 174.917969 L 488 110.34375 L 454.667969 110.34375 Z M 454.667969 174.917969 "/>
<path style="fill-rule:nonzero;fill:rgb(94.901961%,90.196078%,38.039216%);fill-opacity:1;stroke-width:0.75;stroke-linecap:round;stroke-linejoin:round;stroke:rgb(82.745098%,82.745098%,82.745098%);stroke-opacity:1;stroke-miterlimit:10;" d="M 488 174.917969 L 521.332031 174.917969 L 521.332031 110.34375 L 488 110.34375 Z M 488 174.917969 "/>
<path style="fill-rule:nonzero;fill:rgb(98.823529%,100%,64.313725%);fill-opacity:1;stroke-width:0.75;stroke-linecap:round;stroke-linejoin:round;stroke:rgb(82.745098%,82.745098%,82.745098%);stroke-opacity:1;stroke-miterlimit:10;" d="M 521.332031 174.917969 L 554.664062 174.917969 L 554.664062 110.34375 L 521.332031 110.34375 Z M 521.332031 174.917969 "/>
<path style="fill-rule:nonzero;fill:rgb(5.098039%,3.137255%,52.941176%);fill-opacity:1;stroke-width:0.75;stroke-linecap:round;stroke-linejoin:round;stroke:rgb(82.745098%,82.745098%,82.745098%);stroke-opacity:1;stroke-miterlimit:10;" d="M 21.332031 263.667969 L 54.664062 263.667969 L 54.664062 199.09375 L 21.332031 199.09375 Z M 21.332031 263.667969 "/>
<path style="fill-rule:nonzero;fill:rgb(20%,1.960784%,59.215686%);fill-opacity:1;stroke-width:0.75;stroke-linecap:round;stroke-linejoin:round;stroke:rgb(82.745098%,82.745098%,82.745098%);stroke-opacity:1;stroke-miterlimit:10;" d="M 54.667969 263.667969 L 88 263.667969 L 88 199.09375 L 54.667969 199.09375 Z M 54.667969 263.667969 "/>
<path style="fill-rule:nonzero;fill:rgb(31.372549%,0.784314%,63.529412%);fill-opacity:1;stroke-width:0.75;stroke-linecap:round;stroke-linejoin:round;stroke:rgb(82.745098%,82.745098%,82.745098%);stroke-opacity:1;stroke-miterlimit:10;" d="M 88 263.667969 L 121.332031 263.667969 L 121.332031 199.09375 L 88 199.09375 Z M 88 263.667969 "/>
<path style="fill-rule:nonzero;fill:rgb(41.568627%,0%,65.882353%);fill-opacity:1;stroke-width:0.75;stroke-linecap:round;stroke-linejoin:round;stroke:rgb(82.745098%,82.745098%,82.745098%);stroke-opacity:1;stroke-miterlimit:10;" d="M 121.332031 263.667969 L 154.664062 263.667969 L 154.664062 199.09375 L 121.332031 199.09375 Z M 121.332031 263.667969 "/>
<path style="fill-rule:nonzero;fill:rgb(51.764706%,1.960784%,65.490196%);fill-opacity:1;stroke-width:0.75;stroke-linecap:round;stroke-linejoin:round;stroke:rgb(82.745098%,82.745098%,82.745098%);stroke-opacity:1;stroke-miterlimit:10;" d="M 154.667969 263.667969 L 188 263.667969 L 188 199.09375 L 154.667969 199.09375 Z M 154.667969 263.667969 "/>
<path style="fill-rule:nonzero;fill:rgb(61.176471%,9.019608%,61.960784%);fill-opacity:1;stroke-width:0.75;stroke-linecap:round;stroke-linejoin:round;stroke:rgb(82.745098%,82.745098%,82.745098%);stroke-opacity:1;stroke-miterlimit:10;" d="M 188 263.667969 L 221.332031 263.667969 L 221.332031 199.09375 L 188 199.09375 Z M 188 263.667969 "/>
<path style="fill-rule:nonzero;fill:rgb(69.411765%,16.470588%,56.470588%);fill-opacity:1;stroke-width:0.75;stroke-linecap:round;stroke-linejoin:round;stroke:rgb(82.745098%,82.745098%,82.745098%);stroke-opacity:1;stroke-miterlimit:10;" d="M 221.332031 263.667969 L 254.664062 263.667969 L 254.664062 199.09375 L 221.332031 199.09375 Z M 221.332031 263.667969 "/>
<path style="fill-rule:nonzero;fill:rgb(76.470588%,23.921569%,50.196078%);fill-opacity:1;stroke-width:0.75;stroke-linecap:round;stroke-linejoin:round;stroke:rgb(82.745098%,82.745098%,82.745098%);stroke-opacity:1;stroke-miterlimit:10;" d="M 254.667969 263.667969 L 288 263.667969 L 288 199.09375 L 254.667969 199.09375 Z M 254.667969 263.667969 "/>
<path style="fill-rule:nonzero;fill:rgb(82.745098%,31.764706%,44.313725%);fill-opacity:1;stroke-width:0.75;stroke-linecap:round;stroke-linejoin:round;stroke:rgb(82.745098%,82.745098%,82.745098%);stroke-opacity:1;stroke-miterlimit:10;" d="M 288 263.667969 L 321.332031 263.667969 L 321.332031 199.09375 L 288 199.09375 Z M 288 263.667969 "/>
<path style="fill-rule:nonzero;fill:rgb(88.235294%,39.215686%,38.431373%);fill-opacity:1;stroke-width:0.75;stroke-linecap:round;stroke-linejoin:round;stroke:rgb(82.745098%,82.745098%,82.745098%);stroke-opacity:1;stroke-miterlimit:10;" d="M 321.332031 263.667969 L 354.664062 263.667969 L 354.664062 199.09375 L 321.332031 199.09375 Z M 321.332031 263.667969 "/>
<path style="fill-rule:nonzero;fill:rgb(92.941176%,47.45098%,32.54902%);fill-opacity:1;stroke-width:0.75;stroke-linecap:round;stroke-linejoin:round;stroke:rgb(82.745098%,82.745098%,82.745098%);stroke-opacity:1;stroke-miterlimit:10;" d="M 354.667969 263.667969 L 388 263.667969 L 388 199.09375 L 354.667969 199.09375 Z M 354.667969 263.667969 "/>
<path style="fill-rule:nonzero;fill:rgb(96.470588%,56.078431%,26.666667%);fill-opacity:1;stroke-width:0.75;stroke-linecap:round;stroke-linejoin:round;stroke:rgb(82.745098%,82.745098%,82.745098%);stroke-opacity:1;stroke-miterlimit:10;" d="M 388 263.667969 L 421.332031 263.667969 L 421.332031 199.09375 L 388 199.09375 Z M 388 263.667969 "/>
<path style="fill-rule:nonzero;fill:rgb(98.823529%,65.098039%,21.176471%);fill-opacity:1;stroke-width:0.75;stroke-linecap:round;stroke-linejoin:round;stroke:rgb(82.745098%,82.745098%,82.745098%);stroke-opacity:1;stroke-miterlimit:10;" d="M 421.332031 263.667969 L 454.664062 263.667969 L 454.664062 199.09375 L 421.332031 199.09375 Z M 421.332031 263.667969 "/>
<path style="fill-rule:nonzero;fill:rgb(99.607843%,75.294118%,16.078431%);fill-opacity:1;stroke-width:0.75;stroke-linecap:round;stroke-linejoin:round;stroke:rgb(82.745098%,82.745098%,82.745098%);stroke-opacity:1;stroke-miterlimit:10;" d="M 454.667969 263.667969 L 488 263.667969 L 488 199.09375 L 454.667969 199.09375 Z M 454.667969 263.667969 "/>
<path style="fill-rule:nonzero;fill:rgb(97.647059%,86.27451%,14.117647%);fill-opacity:1;stroke-width:0.75;stroke-linecap:round;stroke-linejoin:round;stroke:rgb(82.745098%,82.745098%,82.745098%);stroke-opacity:1;stroke-miterlimit:10;" d="M 488 263.667969 L 521.332031 263.667969 L 521.332031 199.09375 L 488 199.09375 Z M 488 263.667969 "/>
<path style="fill-rule:nonzero;fill:rgb(94.117647%,97.647059%,12.941176%);fill-opacity:1;stroke-width:0.75;stroke-linecap:round;stroke-linejoin:round;stroke:rgb(82.745098%,82.745098%,82.745098%);stroke-opacity:1;stroke-miterlimit:10;" d="M 521.332031 263.667969 L 554.664062 263.667969 L 554.664062 199.09375 L 521.332031 199.09375 Z M 521.332031 263.667969 "/>
<path style="fill-rule:nonzero;fill:rgb(26.666667%,0.392157%,32.941176%);fill-opacity:1;stroke-width:0.75;stroke-linecap:round;stroke-linejoin:round;stroke:rgb(82.745098%,82.745098%,82.745098%);stroke-opacity:1;stroke-miterlimit:10;" d="M 21.332031 352.417969 L 54.664062 352.417969 L 54.664062 287.84375 L 21.332031 287.84375 Z M 21.332031 352.417969 "/>
<path style="fill-rule:nonzero;fill:rgb(28.235294%,10.196078%,42.352941%);fill-opacity:1;stroke-width:0.75;stroke-linecap:round;stroke-linejoin:round;stroke:rgb(82.745098%,82.745098%,82.745098%);stroke-opacity:1;stroke-miterlimit:10;" d="M 54.667969 352.417969 L 88 352.417969 L 88 287.84375 L 54.667969 287.84375 Z M 54.667969 352.417969 "/>
<path style="fill-rule:nonzero;fill:rgb(27.843137%,18.431373%,49.019608%);fill-opacity:1;stroke-width:0.75;stroke-linecap:round;stroke-linejoin:round;stroke:rgb(82.745098%,82.745098%,82.745098%);stroke-opacity:1;stroke-miterlimit:10;" d="M 88 352.417969 L 121.332031 352.417969 L 121.332031 287.84375 L 88 287.84375 Z M 88 352.417969 "/>
<path style="fill-rule:nonzero;fill:rgb(25.490196%,26.666667%,52.941176%);fill-opacity:1;stroke-width:0.75;stroke-linecap:round;stroke-linejoin:round;stroke:rgb(82.745098%,82.745098%,82.745098%);stroke-opacity:1;stroke-miterlimit:10;" d="M 121.332031 352.417969 L 154.664062 352.417969 L 154.664062 287.84375 L 121.332031 287.84375 Z M 121.332031 352.417969 "/>
<path style="fill-rule:nonzero;fill:rgb(22.352941%,33.72549%,54.901961%);fill-opacity:1;stroke-width:0.75;stroke-linecap:round;stroke-linejoin:round;stroke:rgb(82.745098%,82.745098%,82.745098%);stroke-opacity:1;stroke-miterlimit:10;" d="M 154.667969 352.417969 L 188 352.417969 L 188 287.84375 L 154.667969 287.84375 Z M 154.667969 352.417969 "/>
<path style="fill-rule:nonzero;fill:rgb(19.215686%,40.784314%,55.686275%);fill-opacity:1;stroke-width:0.75;stroke-linecap:round;stroke-linejoin:round;stroke:rgb(82.745098%,82.745098%,82.745098%);stroke-opacity:1;stroke-miterlimit:10;" d="M 188 352.417969 L 221.332031 352.417969 L 221.332031 287.84375 L 188 287.84375 Z M 188 352.417969 "/>
<path style="fill-rule:nonzero;fill:rgb(16.470588%,47.058824%,55.686275%);fill-opacity:1;stroke-width:0.75;stroke-linecap:round;stroke-linejoin:round;stroke:rgb(82.745098%,82.745098%,82.745098%);stroke-opacity:1;stroke-miterlimit:10;" d="M 221.332031 352.417969 L 254.664062 352.417969 L 254.664062 287.84375 L 221.332031 287.84375 Z M 221.332031 352.417969 "/>
<path style="fill-rule:nonzero;fill:rgb(13.72549%,53.333333%,55.686275%);fill-opacity:1;stroke-width:0.75;stroke-linecap:round;stroke-linejoin:round;stroke:rgb(82.745098%,82.745098%,82.745098%);stroke-opacity:1;stroke-miterlimit:10;" d="M 254.667969 352.417969 L 288 352.417969 L 288 287.84375 L 254.667969 287.84375 Z M 254.667969 352.417969 "/>
<path style="fill-rule:nonzero;fill:rgb(12.156863%,59.607843%,54.509804%);fill-opacity:1;stroke-width:0.75;stroke-linecap:round;stroke-linejoin:round;stroke:rgb(82.745098%,82.745098%,82.745098%);stroke-opacity:1;stroke-miterlimit:10;" d="M 288 352.417969 L 321.332031 352.417969 L 321.332031 287.84375 L 288 287.84375 Z M 288 352.417969 "/>
<path style="fill-rule:nonzero;fill:rgb(13.333333%,65.882353%,51.764706%);fill-opacity:1;stroke-width:0.75;stroke-linecap:round;stroke-linejoin:round;stroke:rgb(82.745098%,82.745098%,82.745098%);stroke-opacity:1;stroke-miterlimit:10;" d="M 321.332031 352.417969 L 354.664062 352.417969 L 354.664062 287.84375 L 321.332031 287.84375 Z M 321.332031 352.417969 "/>
<path style="fill-rule:nonzero;fill:rgb(20.784314%,71.764706%,47.45098%);fill-opacity:1;stroke-width:0.75;stroke-linecap:round;stroke-linejoin:round;stroke:rgb(82.745098%,82.745098%,82.745098%);stroke-opacity:1;stroke-miterlimit:10;" d="M 354.667969 352.417969 L 388 352.417969 L 388 287.84375 L 354.667969 287.84375 Z M 354.667969 352.417969 "/>
<path style="fill-rule:nonzero;fill:rgb(32.941176%,77.254902%,40.784314%);fill-opacity:1;stroke-width:0.75;stroke-linecap:round;stroke-linejoin:round;stroke:rgb(82.745098%,82.745098%,82.745098%);stroke-opacity:1;stroke-miterlimit:10;" d="M 388 352.417969 L 421.332031 352.417969 L 421.332031 287.84375 L 388 287.84375 Z M 388 352.417969 "/>
<path style="fill-rule:nonzero;fill:rgb(47.843137%,81.960784%,31.764706%);fill-opacity:1;stroke-width:0.75;stroke-linecap:round;stroke-linejoin:round;stroke:rgb(82.745098%,82.745098%,82.745098%);stroke-opacity:1;stroke-miterlimit:10;" d="M 421.332031 352.417969 L 454.664062 352.417969 L 454.664062 287.84375 L 421.332031 287.84375 Z M 421.332031 352.417969 "/>
<path style="fill-rule:nonzero;fill:rgb(64.705882%,85.882353%,21.176471%);fill-opacity:1;stroke-width:0.75;stroke-linecap:round;stroke-linejoin:round;stroke:rgb(82.745098%,82.745098%,82.745098%);stroke-opacity:1;stroke-miterlimit:10;" d="M 454.667969 352.417969 L 488 352.417969 L 488 287.84375 L 454.667969 287.84375 Z M 454.667969 352.417969 "/>
<path style="fill-rule:nonzero;fill:rgb(82.352941%,88.627451%,10.588235%);fill-opacity:1;stroke-width:0.75;stroke-linecap:round;stroke-linejoin:round;stroke:rgb(82.745098%,82.745098%,82.745098%);stroke-opacity:1;stroke-miterlimit:10;" d="M 488 352.417969 L 521.332031 352.417969 L 521.332031 287.84375 L 488 287.84375 Z M 488 352.417969 "/>
<path style="fill-rule:nonzero;fill:rgb(99.215686%,90.588235%,14.509804%);fill-opacity:1;stroke-width:0.75;stroke-linecap:round;stroke-linejoin:round;stroke:rgb(82.745098%,82.745098%,82.745098%);stroke-opacity:1;stroke-miterlimit:10;" d="M 521.332031 352.417969 L 554.664062 352.417969 L 554.664062 287.84375 L 521.332031 287.84375 Z M 521.332031 352.417969 "/>
</g>
</svg>
