<?xml version="1.0" encoding="UTF-8" standalone="no"?>
<!DOCTYPE svg PUBLIC "-//W3C//DTD SVG 1.1//EN"
 "http://www.w3.org/Graphics/SVG/1.1/DTD/svg11.dtd">
<!-- Generated by graphviz version 2.40.1 (20161225.0304)
 -->
<!-- Title: boxes_and_circles Pages: 1 -->
<svg width="931pt" height="648pt"
 viewBox="0.00 0.00 931.48 648.47" xmlns="http://www.w3.org/2000/svg" xmlns:xlink="http://www.w3.org/1999/xlink">
<g id="graph0" class="graph" transform="scale(1 1) rotate(0) translate(4 644.4656)">
<title>boxes_and_circles</title>
<polygon fill="#ffffff" stroke="transparent" points="-4,4 -4,-644.4656 927.4838,-644.4656 927.4838,4 -4,4"/>
<!-- MCMC -->
<g id="node1" class="node">
<title>MCMC</title>
<ellipse fill="none" stroke="#000000" cx="347.2433" cy="-599.3805" rx="41.1703" ry="41.1703"/>
<text text-anchor="middle" x="347.2433" y="-595.1805" font-family="Times,serif" font-size="14.00" fill="#000000">MCMC</text>
</g>
<!-- Metropolis -->
<g id="node2" class="node">
<title>Metropolis</title>
<ellipse fill="none" stroke="#000000" cx="267.2433" cy="-415.8736" rx="53.3283" ry="53.3283"/>
<text text-anchor="middle" x="267.2433" y="-411.6736" font-family="Times,serif" font-size="14.00" fill="#000000">Metropolis</text>
</g>
<!-- MCMC&#45;&gt;Metropolis -->
<g id="edge1" class="edge">
<title>MCMC&#45;&gt;Metropolis</title>
<path fill="none" stroke="#000000" d="M330.6672,-561.3578C318.4933,-533.4328 301.8499,-495.2556 288.667,-465.0162"/>
<text text-anchor="middle" x="351.2121" y="-527.6955" font-family="Times,serif" font-size="14.00" fill="#000000"> algorithm</text>
</g>
<!-- Metropolis Hastings -->
<g id="node3" class="node">
<title>Metropolis Hastings</title>
<ellipse fill="none" stroke="#000000" cx="501.2433" cy="-415.8736" rx="89.7438" ry="89.7438"/>
<text text-anchor="middle" x="501.2433" y="-411.6736" font-family="Times,serif" font-size="14.00" fill="#000000">Metropolis Hastings</text>
</g>
<!-- MCMC&#45;&gt;Metropolis Hastings -->
<g id="edge2" class="edge">
<title>MCMC&#45;&gt;Metropolis Hastings</title>
<path fill="none" stroke="#000000" d="M373.7168,-567.8346C392.8944,-544.9826 419.5584,-513.2097 443.5494,-484.6218"/>
<text text-anchor="middle" x="440.2121" y="-527.6955" font-family="Times,serif" font-size="14.00" fill="#000000"> algorithm</text>
</g>
<!-- symmetric proposal -->
<g id="node8" class="node">
<title>symmetric proposal</title>
<polygon fill="none" stroke="#000000" stroke-width="2" points="311.0761,-217.9136 173.4105,-217.9136 173.4105,-181.9136 311.0761,-181.9136 311.0761,-217.9136"/>
<text text-anchor="middle" x="242.2433" y="-195.7136" font-family="Helvetica,sans-Serif" font-size="14.00" fill="#000000">symmetric proposal</text>
</g>
<!-- Metropolis&#45;&gt;symmetric proposal -->
<g id="edge3" class="edge">
<title>Metropolis&#45;&gt;symmetric proposal</title>
<path fill="none" stroke="#000000" d="M261.0956,-362.7673C255.6596,-315.8086 248.0405,-249.9924 244.3765,-218.3408"/>
</g>
<!-- Hamilton MC -->
<g id="node4" class="node">
<title>Hamilton MC</title>
<ellipse fill="none" stroke="#000000" cx="394.2433" cy="-199.9136" rx="64.9064" ry="64.9064"/>
<text text-anchor="middle" x="394.2433" y="-195.7136" font-family="Times,serif" font-size="14.00" fill="#000000">Hamilton MC</text>
</g>
<!-- Metropolis Hastings&#45;&gt;Hamilton MC -->
<g id="edge6" class="edge">
<title>Metropolis Hastings&#45;&gt;Hamilton MC</title>
<path fill="none" stroke="#000000" d="M461.4004,-335.4581C448.6852,-309.7946 434.8669,-281.9049 423.0889,-258.1332"/>
<text text-anchor="middle" x="477.2058" y="-295.6518" font-family="Times,serif" font-size="14.00" fill="#000000"> technique</text>
</g>
<!-- Gibbs Sampling -->
<g id="node5" class="node">
<title>Gibbs Sampling</title>
<ellipse fill="none" stroke="#000000" cx="563.2433" cy="-199.9136" rx="73.5764" ry="73.5764"/>
<text text-anchor="middle" x="563.2433" y="-195.7136" font-family="Times,serif" font-size="14.00" fill="#000000">Gibbs Sampling</text>
</g>
<!-- Metropolis Hastings&#45;&gt;Gibbs Sampling -->
<g id="edge5" class="edge">
<title>Metropolis Hastings&#45;&gt;Gibbs Sampling</title>
<path fill="none" stroke="#000000" d="M526.0146,-329.5895C531.6137,-310.0866 537.4955,-289.5989 542.8882,-270.8151"/>
<text text-anchor="middle" x="565.2058" y="-295.6518" font-family="Times,serif" font-size="14.00" fill="#000000"> technique</text>
</g>
<!-- asymmetric proposal -->
<g id="node9" class="node">
<title>asymmetric proposal</title>
<polygon fill="none" stroke="#000000" stroke-width="2" points="799.8583,-217.9136 654.6283,-217.9136 654.6283,-181.9136 799.8583,-181.9136 799.8583,-217.9136"/>
<text text-anchor="middle" x="727.2433" y="-195.7136" font-family="Helvetica,sans-Serif" font-size="14.00" fill="#000000">asymmetric proposal</text>
</g>
<!-- Metropolis Hastings&#45;&gt;asymmetric proposal -->
<g id="edge4" class="edge">
<title>Metropolis Hastings&#45;&gt;asymmetric proposal</title>
<path fill="none" stroke="#000000" d="M566.3087,-353.6988C614.5567,-307.5941 677.1165,-247.8136 708.1064,-218.2004"/>
</g>
<!-- high cost, high efficiency -->
<g id="node10" class="node">
<title>high cost, high efficiency</title>
<polygon fill="none" stroke="#000000" stroke-width="2" points="168.7306,-54.7877 -.244,-54.7877 -.244,-18.7877 168.7306,-18.7877 168.7306,-54.7877"/>
<text text-anchor="middle" x="84.2433" y="-32.5877" font-family="Helvetica,sans-Serif" font-size="14.00" fill="#000000">high cost, high efficiency</text>
</g>
<!-- Hamilton MC&#45;&gt;high cost, high efficiency -->
<g id="edge13" class="edge">
<title>Hamilton MC&#45;&gt;high cost, high efficiency</title>
<path fill="none" stroke="#000000" d="M351.1335,-151.0646C341.5918,-142.048 331.0759,-133.3054 320.2433,-126.3754 263.5242,-90.0899 241.1521,-97.5791 178.2433,-73.5754 162.5249,-67.5779 145.3766,-60.9052 130.0812,-54.9072"/>
</g>
<!-- continous parameters -->
<g id="node11" class="node">
<title>continous parameters</title>
<polygon fill="none" stroke="#000000" stroke-width="2" points="337.3301,-54.7877 187.1565,-54.7877 187.1565,-18.7877 337.3301,-18.7877 337.3301,-54.7877"/>
<text text-anchor="middle" x="262.2433" y="-32.5877" font-family="Helvetica,sans-Serif" font-size="14.00" fill="#000000">continous parameters</text>
</g>
<!-- Hamilton MC&#45;&gt;continous parameters -->
<g id="edge12" class="edge">
<title>Hamilton MC&#45;&gt;continous parameters</title>
<path fill="none" stroke="#000000" d="M353.2012,-149.1938C327.3182,-117.2074 295.4295,-77.7992 277.1068,-55.1561"/>
</g>
<!-- full sweep -->
<g id="node12" class="node">
<title>full sweep</title>
<polygon fill="none" stroke="#000000" stroke-width="2" points="433.475,-54.7877 355.0116,-54.7877 355.0116,-18.7877 433.475,-18.7877 433.475,-54.7877"/>
<text text-anchor="middle" x="394.2433" y="-32.5877" font-family="Helvetica,sans-Serif" font-size="14.00" fill="#000000">full sweep</text>
</g>
<!-- Hamilton MC&#45;&gt;full sweep -->
<g id="edge11" class="edge">
<title>Hamilton MC&#45;&gt;full sweep</title>
<path fill="none" stroke="#000000" d="M394.2433,-134.504C394.2433,-105.7851 394.2433,-74.2829 394.2433,-55.0206"/>
</g>
<!-- BUGS -->
<g id="node6" class="node">
<title>BUGS</title>
<ellipse fill="none" stroke="#000000" cx="488.2433" cy="-36.7877" rx="36.5767" ry="36.5767"/>
<text text-anchor="middle" x="488.2433" y="-32.5877" font-family="Times,serif" font-size="14.00" fill="#000000">BUGS</text>
</g>
<!-- Gibbs Sampling&#45;&gt;BUGS -->
<g id="edge8" class="edge">
<title>Gibbs Sampling&#45;&gt;BUGS</title>
<path fill="none" stroke="#000000" d="M529.0664,-134.7775C524.7233,-125.9658 520.4421,-116.993 516.5511,-108.3754 511.1612,-96.4383 505.7496,-83.1497 501.1227,-71.2937"/>
<text text-anchor="middle" x="543.0894" y="-95.7754" font-family="Times,serif" font-size="14.00" fill="#000000"> software</text>
</g>
<!-- JAGS -->
<g id="node7" class="node">
<title>JAGS</title>
<ellipse fill="none" stroke="#000000" cx="577.2433" cy="-36.7877" rx="34.2065" ry="34.2065"/>
<text text-anchor="middle" x="577.2433" y="-32.5877" font-family="Times,serif" font-size="14.00" fill="#000000">JAGS</text>
</g>
<!-- Gibbs Sampling&#45;&gt;JAGS -->
<g id="edge10" class="edge">
<title>Gibbs Sampling&#45;&gt;JAGS</title>
<path fill="none" stroke="#000000" d="M569.5471,-126.4632C571.2018,-107.1821 572.909,-87.2903 574.2938,-71.1552"/>
</g>
<!-- conjugate pairs/priors -->
<g id="node13" class="node">
<title>conjugate pairs/priors</title>
<polygon fill="none" stroke="#000000" stroke-width="2" points="779.0428,-54.7877 629.4438,-54.7877 629.4438,-18.7877 779.0428,-18.7877 779.0428,-54.7877"/>
<text text-anchor="middle" x="704.2433" y="-32.5877" font-family="Helvetica,sans-Serif" font-size="14.00" fill="#000000">conjugate pairs/priors</text>
</g>
<!-- Gibbs Sampling&#45;&gt;conjugate pairs/priors -->
<g id="edge9" class="edge">
<title>Gibbs Sampling&#45;&gt;conjugate pairs/priors</title>
<path fill="none" stroke="#000000" d="M611.3731,-144.2312C638.1787,-113.2192 669.7978,-76.6384 688.3685,-55.1536"/>
</g>
<!-- adaptive proposal -->
<g id="node14" class="node">
<title>adaptive proposal</title>
<polygon fill="none" stroke="#000000" stroke-width="2" points="923.7252,-54.7877 796.7614,-54.7877 796.7614,-18.7877 923.7252,-18.7877 923.7252,-54.7877"/>
<text text-anchor="middle" x="860.2433" y="-32.5877" font-family="Helvetica,sans-Serif" font-size="14.00" fill="#000000">adaptive proposal</text>
</g>
<!-- Gibbs Sampling&#45;&gt;adaptive proposal -->
<g id="edge7" class="edge">
<title>Gibbs Sampling&#45;&gt;adaptive proposal</title>
<path fill="none" stroke="#000000" d="M615.6496,-147.7694C625.0434,-139.9639 635.0889,-132.4951 645.2433,-126.3754 703.2697,-91.405 726.191,-100.7693 788.2433,-73.5754 801.1,-67.9411 814.8987,-61.0952 826.9418,-54.8441"/>
</g>
</g>
</svg>
