<?xml version="1.0" encoding="utf-8" standalone="no"?>
<!DOCTYPE svg PUBLIC "-//W3C//DTD SVG 1.1//EN"
  "http://www.w3.org/Graphics/SVG/1.1/DTD/svg11.dtd">
<!-- Created with matplotlib (http://matplotlib.org/) -->
<svg height="266pt" version="1.1" viewBox="0 0 432 266" width="432pt" xmlns="http://www.w3.org/2000/svg" xmlns:xlink="http://www.w3.org/1999/xlink">
 <defs>
  <style type="text/css">
*{stroke-linecap:butt;stroke-linejoin:round;}
  </style>
 </defs>
 <g id="figure_1">
  <g id="patch_1">
   <path d="
M0 266.976
L432 266.976
L432 0
L0 0
z
" style="fill:#ffffff;"/>
  </g>
  <g id="axes_1">
   <g id="patch_2">
    <path d="
M54 240.278
L388.8 240.278
L388.8 53.3952
L54 53.3952
z
" style="fill:#ffffff;"/>
   </g>
   <g id="line2d_1">
    <path clip-path="url(#p2decfe96f9)" d="
M54 53.3952
L57.348 54.132
L60.696 56.3308
L64.044 59.957
L67.392 64.9533
L70.74 71.241
L74.088 78.7208
L77.436 87.2749
L80.784 96.7683
L84.132 107.051
L87.48 117.962
L90.828 129.328
L94.176 140.97
L97.524 152.704
L100.872 164.346
L104.22 175.712
L107.568 186.622
L110.916 196.905
L114.264 206.399
L117.612 214.953
L120.96 222.433
L124.308 228.72
L127.656 233.717
L131.004 237.343
L134.352 239.542
L137.7 240.278
L141.048 239.542
L144.396 237.343
L147.744 233.717
L151.092 228.72
L154.44 222.433
L157.788 214.953
L161.136 206.399
L164.484 196.905
L167.832 186.622
L171.18 175.712
L174.528 164.346
L177.876 152.704
L181.224 140.97
L184.572 129.328
L187.92 117.962
L191.268 107.051
L194.616 96.7683
L197.964 87.2749
L201.312 78.7208
L204.66 71.241
L208.008 64.9533
L211.356 59.957
L214.704 56.3308
L218.052 54.132
L221.4 53.3952
L224.748 54.132
L228.096 56.3308
L231.444 59.957
L234.792 64.9533
L238.14 71.241
L241.488 78.7208
L244.836 87.2749
L248.184 96.7683
L251.532 107.051
L254.88 117.962
L258.228 129.328
L261.576 140.97
L264.924 152.704
L268.272 164.346
L271.62 175.712
L274.968 186.622
L278.316 196.905
L281.664 206.399
L285.012 214.953
L288.36 222.433
L291.708 228.72
L295.056 233.717
L298.404 237.343
L301.752 239.542
L305.1 240.278
L308.448 239.542
L311.796 237.343
L315.144 233.717
L318.492 228.72
L321.84 222.433
L325.188 214.953
L328.536 206.399
L331.884 196.905
L335.232 186.622
L338.58 175.712
L341.928 164.346
L345.276 152.704
L348.624 140.97
L351.972 129.328
L355.32 117.962
L358.668 107.051
L362.016 96.7683
L365.364 87.2749
L368.712 78.7208
L372.06 71.241
L375.408 64.9533
L378.756 59.957
L382.104 56.3308
L385.452 54.132
L388.8 53.3952" style="fill:none;stroke:#0000ff;stroke-linecap:square;"/>
   </g>
   <g id="matplotlib.axis_1">
    <g id="xtick_1">
     <g id="line2d_2">
      <defs>
       <path d="
M0 0
L0 -4" id="m93b0483c22" style="stroke:#000000;stroke-width:0.5;"/>
      </defs>
      <g>
       <use style="stroke:#000000;stroke-width:0.5;" x="54.0" xlink:href="#m93b0483c22" y="240.2784"/>
      </g>
     </g>
     <g id="line2d_3">
      <defs>
       <path d="
M0 0
L0 4" id="m741efc42ff" style="stroke:#000000;stroke-width:0.5;"/>
      </defs>
      <g>
       <use style="stroke:#000000;stroke-width:0.5;" x="54.0" xlink:href="#m741efc42ff" y="53.3952"/>
      </g>
     </g>
     <g id="text_1">
      <!-- $0.0$ -->
      <defs>
       <path d="
M42 31.6406
C42 37.75 41.9062 48.125 37.7031 56.1094
C34 63.1094 28.0938 65.5938 22.9062 65.5938
C18.0938 65.5938 12 63.4062 8.20312 56.2031
C4.20312 48.7188 3.79688 39.4375 3.79688 31.6406
C3.79688 25.9531 3.90625 17.2812 7 9.67188
C11.2969 -0.609375 19 -2 22.9062 -2
C27.5 -2 34.5 -0.109375 38.5938 9.375
C41.5938 16.2812 42 24.3594 42 31.6406
M22.9062 -0.40625
C16.5 -0.40625 12.7031 5.07812 11.2969 12.6875
C10.2031 18.5625 10.2031 27.1562 10.2031 32.75
C10.2031 40.4375 10.2031 46.8281 11.5 52.9219
C13.4062 61.3906 19 64 22.9062 64
C27 64 32.2969 61.2969 34.2031 53.125
C35.5 47.4375 35.5938 40.7344 35.5938 32.75
C35.5938 26.25 35.5938 18.2656 34.4062 12.375
C32.2969 1.48438 26.4062 -0.40625 22.9062 -0.40625" id="CMR17-48"/>
       <path d="
M18.4062 4.79688
C18.4062 7.6875 16 9.67188 13.5938 9.67188
C10.7031 9.67188 8.70312 7.28125 8.70312 4.89062
C8.70312 2 11.0938 0 13.5 0
C16.4062 0 18.4062 2.39062 18.4062 4.79688" id="CMMI12-58"/>
      </defs>
      <g transform="translate(46.5211791232 253.149050466)scale(0.12 -0.12)">
       <use transform="scale(0.996264009963)" xlink:href="#CMR17-48"/>
       <use transform="translate(45.6904771171 0.0)scale(0.996264009963)" xlink:href="#CMMI12-58"/>
       <use transform="translate(72.7876542069 0.0)scale(0.996264009963)" xlink:href="#CMR17-48"/>
      </g>
     </g>
    </g>
    <g id="xtick_2">
     <g id="line2d_4">
      <g>
       <use style="stroke:#000000;stroke-width:0.5;" x="120.96" xlink:href="#m93b0483c22" y="240.2784"/>
      </g>
     </g>
     <g id="line2d_5">
      <g>
       <use style="stroke:#000000;stroke-width:0.5;" x="120.96" xlink:href="#m741efc42ff" y="53.3952"/>
      </g>
     </g>
     <g id="text_2">
      <!-- $0.2$ -->
      <defs>
       <path d="
M41.7031 15.4531
L39.9062 15.4531
C38.9062 8.375 38.0938 7.17188 37.7031 6.5625
C37.2031 5.76562 30 5.76562 28.5938 5.76562
L9.40625 5.76562
C13 9.67188 20 16.75 28.5 24.9531
C34.5938 30.7344 41.7031 37.5312 41.7031 47.4219
C41.7031 59.2188 32.2969 66 21.7969 66
C10.7969 66 4.09375 56.3125 4.09375 47.3438
C4.09375 43.4375 7 42.9375 8.20312 42.9375
C9.20312 42.9375 12.2031 43.5469 12.2031 47.0312
C12.2031 50.1094 9.59375 51 8.20312 51
C7.59375 51 7 50.9062 6.59375 50.7031
C8.5 59.2188 14.2969 63.4062 20.4062 63.4062
C29.0938 63.4062 34.7969 56.5156 34.7969 47.4219
C34.7969 38.7344 29.7031 31.25 24 24.75
L4.09375 2.28125
L4.09375 0
L39.2969 0
z
" id="CMR17-50"/>
      </defs>
      <g transform="translate(113.481179123 253.149050466)scale(0.12 -0.12)">
       <use transform="scale(0.996264009963)" xlink:href="#CMR17-48"/>
       <use transform="translate(45.6904771171 0.0)scale(0.996264009963)" xlink:href="#CMMI12-58"/>
       <use transform="translate(72.7876542069 0.0)scale(0.996264009963)" xlink:href="#CMR17-50"/>
      </g>
     </g>
    </g>
    <g id="xtick_3">
     <g id="line2d_6">
      <g>
       <use style="stroke:#000000;stroke-width:0.5;" x="187.92" xlink:href="#m93b0483c22" y="240.2784"/>
      </g>
     </g>
     <g id="line2d_7">
      <g>
       <use style="stroke:#000000;stroke-width:0.5;" x="187.92" xlink:href="#m741efc42ff" y="53.3952"/>
      </g>
     </g>
     <g id="text_3">
      <!-- $0.4$ -->
      <defs>
       <path d="
M33.5938 64.3281
C33.5938 66.4062 33.5 66.5 31.7031 66.5
L2 19.5938
L2 17
L27.7969 17
L27.7969 7.14062
C27.7969 3.5 27.5938 2.5 20.5938 2.5
L18.7031 2.5
L18.7031 0
C21.9062 0 27.2969 0 30.7031 0
C34.0938 0 39.5 0 42.7031 0
L42.7031 2.5
L40.7969 2.5
C33.7969 2.5 33.5938 3.5 33.5938 7.14062
L33.5938 17
L43.7969 17
L43.7969 19.5938
L33.5938 19.5938
z

M28.0938 57.7656
L28.0938 19.5938
L4 19.5938
z
" id="CMR17-52"/>
      </defs>
      <g transform="translate(180.441179123 253.149050466)scale(0.12 -0.12)">
       <use transform="scale(0.996264009963)" xlink:href="#CMR17-48"/>
       <use transform="translate(45.6904771171 0.0)scale(0.996264009963)" xlink:href="#CMMI12-58"/>
       <use transform="translate(72.7876542069 0.0)scale(0.996264009963)" xlink:href="#CMR17-52"/>
      </g>
     </g>
    </g>
    <g id="xtick_4">
     <g id="line2d_8">
      <g>
       <use style="stroke:#000000;stroke-width:0.5;" x="254.88" xlink:href="#m93b0483c22" y="240.2784"/>
      </g>
     </g>
     <g id="line2d_9">
      <g>
       <use style="stroke:#000000;stroke-width:0.5;" x="254.88" xlink:href="#m741efc42ff" y="53.3952"/>
      </g>
     </g>
     <g id="text_4">
      <!-- $0.6$ -->
      <defs>
       <path d="
M10.5938 34
C10.5938 57.6562 21.7969 63 28.2969 63
C30.4062 63 35.5 62.6406 37.5 59
C35.9062 59 32.9062 59 32.9062 55.5156
C32.9062 52.8281 35.0938 51.9219 36.5 51.9219
C37.4062 51.9219 40.0938 52.3125 40.0938 55.625
C40.0938 61.7812 35.0938 65.2969 28.2031 65.2969
C16.2969 65.2969 3.79688 52.9688 3.79688 31
C3.79688 3.95312 15.0938 -2 23.0938 -2
C32.7969 -2 42 6.67188 42 20.0469
C42 32.5156 33.9062 41.5938 23.7031 41.5938
C17.5938 41.5938 13.0938 37.6094 10.5938 30.625
z

M23.0938 0.390625
C10.7969 0.390625 10.7969 18.75 10.7969 22.4375
C10.7969 29.625 14.2031 40 23.5 40
C25.2031 40 30.0938 40 33.4062 33.125
C35.2031 29.2188 35.2031 25.1406 35.2031 20.1406
C35.2031 14.75 35.2031 10.7812 33.0938 6.78125
C30.9062 2.67188 27.7031 0.390625 23.0938 0.390625" id="CMR17-54"/>
      </defs>
      <g transform="translate(247.401179123 253.149050466)scale(0.12 -0.12)">
       <use transform="scale(0.996264009963)" xlink:href="#CMR17-48"/>
       <use transform="translate(45.6904771171 0.0)scale(0.996264009963)" xlink:href="#CMMI12-58"/>
       <use transform="translate(72.7876542069 0.0)scale(0.996264009963)" xlink:href="#CMR17-54"/>
      </g>
     </g>
    </g>
    <g id="xtick_5">
     <g id="line2d_10">
      <g>
       <use style="stroke:#000000;stroke-width:0.5;" x="321.84" xlink:href="#m93b0483c22" y="240.2784"/>
      </g>
     </g>
     <g id="line2d_11">
      <g>
       <use style="stroke:#000000;stroke-width:0.5;" x="321.84" xlink:href="#m741efc42ff" y="53.3952"/>
      </g>
     </g>
     <g id="text_5">
      <!-- $0.8$ -->
      <defs>
       <path d="
M27.2031 35.375
C33.5 38.5625 39.9062 43.3281 39.9062 50.9844
C39.9062 60.0312 31.0938 65.2969 23 65.2969
C13.9062 65.2969 5.90625 58.7344 5.90625 49.6875
C5.90625 47.2031 6.5 42.9219 10.4062 39.1406
C11.4062 38.1562 15.5938 35.1719 18.2969 33.2812
C13.7969 30.9844 3.29688 25.5312 3.29688 14.5938
C3.29688 4.35938 13.0938 -2 22.7969 -2
C33.5 -2 42.5 5.65625 42.5 15.7969
C42.5 24.8438 36.4062 29.0312 32.4062 31.7031
z

M14.0938 44.125
C13.2969 44.625 9.29688 47.7031 9.29688 52.375
C9.29688 58.4375 15.5938 63 22.7969 63
C30.7031 63 36.5 57.4531 36.5 50.9844
C36.5 41.7344 26.0938 36.4688 25.5938 36.4688
C25.5 36.4688 25.4062 36.4688 24.5938 37.0781
z

M32.5 23.7344
C34 22.6406 38.7969 19.375 38.7969 13.2969
C38.7969 5.95312 31.4062 0.390625 23 0.390625
C13.9062 0.390625 7 6.84375 7 14.6875
C7 22.5469 13.0938 29.0938 20 32.1875
z
" id="CMR17-56"/>
      </defs>
      <g transform="translate(314.361179123 253.149050466)scale(0.12 -0.12)">
       <use transform="scale(0.996264009963)" xlink:href="#CMR17-48"/>
       <use transform="translate(45.6904771171 0.0)scale(0.996264009963)" xlink:href="#CMMI12-58"/>
       <use transform="translate(72.7876542069 0.0)scale(0.996264009963)" xlink:href="#CMR17-56"/>
      </g>
     </g>
    </g>
    <g id="xtick_6">
     <g id="line2d_12">
      <g>
       <use style="stroke:#000000;stroke-width:0.5;" x="388.8" xlink:href="#m93b0483c22" y="240.2784"/>
      </g>
     </g>
     <g id="line2d_13">
      <g>
       <use style="stroke:#000000;stroke-width:0.5;" x="388.8" xlink:href="#m741efc42ff" y="53.3952"/>
      </g>
     </g>
     <g id="text_6">
      <!-- $1.0$ -->
      <defs>
       <path d="
M26.5938 63.3125
C26.5938 65.4062 26.5 65.5 25.0938 65.5
C21.2031 61.1875 15.2969 59.7969 9.70312 59.7969
C9.40625 59.7969 8.90625 59.7969 8.79688 59.6094
C8.70312 59.3906 8.70312 59.1719 8.70312 57
C11.7969 57 17 57.5938 21 59.9844
L21 7.20312
C21 3.6875 20.7969 2.5 12.2031 2.5
L9.20312 2.5
L9.20312 0
C14 0 19 0 23.7969 0
C28.5938 0 33.5938 0 38.4062 0
L38.4062 2.5
L35.4062 2.5
C26.7969 2.5 26.5938 3.59375 26.5938 7.15625
z
" id="CMR17-49"/>
      </defs>
      <g transform="translate(381.321179123 253.149050466)scale(0.12 -0.12)">
       <use transform="scale(0.996264009963)" xlink:href="#CMR17-49"/>
       <use transform="translate(45.6904771171 0.0)scale(0.996264009963)" xlink:href="#CMMI12-58"/>
       <use transform="translate(72.7876542069 0.0)scale(0.996264009963)" xlink:href="#CMR17-48"/>
      </g>
     </g>
    </g>
    <g id="text_7">
     <!-- \textbf{time} (s) -->
     <defs>
      <path d="
M39 48
L35.5 48
L32.5938 44.4062
C29 47.2031 25.4062 48.3906 20.4062 48.3906
C11.5938 48.3906 5.79688 42.625 5.79688 33.9531
C5.79688 30.0781 7.09375 26.7812 9.29688 24.8125
C11.5938 22.7031 13.9062 21.7188 19.9062 20.3125
L25.2031 19.125
C33.0938 17.2344 35.9062 15.2344 35.9062 11.2656
C35.9062 6.57812 31.7969 3.29688 25.9062 3.29688
C17.5 3.29688 11.5 8.76562 9.09375 18.875
L5.09375 18.875
L5.09375 0
L8.59375 0
L12.0938 3.90625
C16.2031 0.59375 20.7969 -1 25.7969 -1
C35.5938 -1 42.0938 5.07812 42.0938 14.3438
C42.0938 18.7188 40.7031 22.0938 37.9062 24.3906
C35.5 26.4844 33.5 27.2812 27.4062 28.5625
L22.4062 29.6719
C16.9062 30.8594 16.9062 30.8594 15.0938 31.8594
C12.9062 32.8594 11.5938 34.9375 11.5938 37.1406
C11.5938 41.1094 15.4062 44 20.9062 44
C24.7031 44 27.7969 42.7031 30.5938 40.0156
C32.7969 37.8125 33.9062 35.8281 35.5 31.2344
L39 31.2344
z
" id="Century_Schoolbook_L_Roman-115"/>
      <path d="
M24.7969 47
L2 47
L2 41.5781
L3.59375 41.5781
C9.70312 41.5781 10 41.0781 10 32.1719
L10 14.4219
L10 9.82812
C10 5.71875 8.90625 5.125 2.5 5.125
L2 5.125
L2 0
L31.5 0
L31.5 5.125
C26.4062 5.125 25.7031 5.73438 25.7031 9.65625
L25.7031 14.3906
L25.7031 27.8906
C25.7031 35.0312 29.2969 39.6719 34.7969 39.6719
C38.7031 39.6719 40.2969 36.9531 40.2969 30.2969
L40.2969 14.3906
L40.2969 9.76562
C40.2969 5.73438 39.5938 5.125 34.5938 5.125
L34.5938 0
L61.7969 0
L61.7969 5.125
C56.7031 5.125 56 5.73438 56 9.65625
L56 14.3906
L56 27.8906
C56 35.0312 59.5 39.6719 65.0938 39.6719
C68.9062 39.6719 70.5938 36.9531 70.5938 30.7031
L70.5938 14.3906
L70.5938 9.65625
C70.5938 5.73438 69.9062 5.125 64.7969 5.125
L64.7969 0
L94.2031 0
L94.2031 5.125
L93.7969 5.125
C87.4062 5.125 86.2969 5.82812 86.2969 9.73438
L86.2969 14.4531
L86.2969 34.4375
C86.2969 42.6719 79.5 49 70.5938 49
C64.2031 49 59.5938 46.3906 54.9062 39.9531
C52.7969 45.5938 47.5 49 40.7969 49
C34.0938 49 28.7969 45.8906 24.7969 39.5781
z
" id="Century_Schoolbook_L_Bold-109"/>
      <path d="
M38.0938 48
L25.0938 48
L25.0938 68
L18.7969 68
C17.2031 55.0938 11.7969 48.3125 2.29688 47.2031
L2.29688 41.9688
L9.40625 41.9688
L9.40625 17.9688
C9.40625 9.73438 9.79688 7.32812 11.5 4.51562
C13.5938 1 17.9062 -1 23.5938 -1
C29.2969 -1 33.7969 0.90625 36.5 4.51562
C39 7.73438 40.5 12.5469 40.5 16.875
C40.5 17.375 40.5 18.1719 40.4062 19.1719
L35.0938 19.1719
C35.2031 11.75 32.9062 7.53125 28.7969 7.53125
C25.9062 7.53125 25.0938 9.34375 25.0938 16.1719
L25.0938 41.9688
L38.0938 41.9688
z
" id="Century_Schoolbook_L_Bold-116"/>
      <path d="
M54 23.4688
L54 25.0625
C54 39.8125 44.7031 49.2188 30.0938 49.2188
C22.0938 49.2188 15.4062 46.625 10.4062 41.5312
C5.90625 36.8281 3.20312 30.25 3.20312 23.6562
C3.20312 16.5781 6.29688 9.375 11.2969 5.09375
C15.9062 1.1875 22.5938 -1 30.2031 -1
C41.9062 -1 49.5938 4.23438 54 15
L49.0938 17.0156
C45.0938 9.15625 40.5938 5.82812 34.0938 5.82812
C29.5 5.82812 25.5 8.04688 23 11.875
C21.2969 14.5938 20.5938 17.7188 20.5 23.4688
z

M20.5938 29
C20.5938 38.3125 24.4062 44 30.4062 44
C35.5 44 38.2969 39.875 38.2969 32.125
C38.2969 29.7812 37.5938 29 35.5938 29
z
" id="Century_Schoolbook_L_Bold-101"/>
      <path d="
M26.2969 47
L2.79688 47
L2.79688 41.5781
L4.20312 41.5781
C10.2969 41.5781 10.5938 41.0781 10.5938 32.1719
L10.5938 14.4219
L10.5938 9.82812
C10.5938 5.82812 9.5 5.125 3.20312 5.125
L2.79688 5.125
L2.79688 0
L34.0938 0
L34.0938 5.125
L33.5 5.125
C27.4062 5.125 26.2969 5.8125 26.2969 9.6875
L26.2969 14.3438
z

M18.2031 74
C13.2969 74 9.29688 69.9844 9.29688 65.1719
C9.29688 60.3438 13.2969 56.2344 18 56.2344
C23 56.2344 27 60.1562 27 65.1719
C27 69.9844 23 74 18.2031 74" id="Century_Schoolbook_L_Bold-105"/>
      <path d="
M5.40625 -12.2812
C11.4062 -8.57812 14.5938 -5.98438 18 -1.89062
C25.5938 6.98438 29.7031 18.5625 29.7031 30.6406
C29.7031 42.0156 26.0938 52.7031 19.4062 61.4844
C15.5938 66.375 12.2031 69.3594 5.40625 73.4531
L5.40625 69.7656
C15.4062 60.9844 19.4062 49.7969 19.4062 30.6406
C19.4062 11.375 15.4062 0.203125 5.40625 -8.57812
z
" id="Century_Schoolbook_L_Roman-41"/>
      <path d="
M27.9062 73.4531
C21.9062 69.7656 18.7031 67.1719 15.2969 63.1719
C7.70312 54.1875 3.59375 42.7188 3.59375 30.6406
C3.59375 19.2656 7.20312 8.57812 13.9062 -0.296875
C17.7031 -5.09375 21.0938 -8.07812 27.9062 -12.2812
L27.9062 -8.57812
C17.9062 0.203125 13.9062 11.4844 13.9062 30.6406
C13.9062 49.7969 17.9062 60.9844 27.9062 69.7656
z
" id="Century_Schoolbook_L_Roman-40"/>
     </defs>
     <g transform="translate(199.044198027 269.291136053)scale(0.12 -0.12)">
      <use transform="scale(0.996264009963)" xlink:href="#Century_Schoolbook_L_Bold-116"/>
      <use transform="translate(42.4397583768 0.0)scale(0.996264009963)" xlink:href="#Century_Schoolbook_L_Bold-105"/>
      <use transform="translate(79.3010402884 0.0)scale(0.996264009963)" xlink:href="#Century_Schoolbook_L_Bold-109"/>
      <use transform="translate(175.240051346 0.0)scale(0.996264009963)" xlink:href="#Century_Schoolbook_L_Bold-101"/>
      <use transform="translate(260.120708233 0.0)scale(0.996264009963)" xlink:href="#Century_Schoolbook_L_Roman-40"/>
      <use transform="translate(293.295937962 0.0)scale(0.996264009963)" xlink:href="#Century_Schoolbook_L_Roman-115"/>
      <use transform="translate(339.421748521 0.0)scale(0.996264009963)" xlink:href="#Century_Schoolbook_L_Roman-41"/>
     </g>
    </g>
   </g>
   <g id="matplotlib.axis_2">
    <g id="ytick_1">
     <g id="line2d_14">
      <defs>
       <path d="
M0 0
L4 0" id="m728421d6d4" style="stroke:#000000;stroke-width:0.5;"/>
      </defs>
      <g>
       <use style="stroke:#000000;stroke-width:0.5;" x="54.0" xlink:href="#m728421d6d4" y="240.2784"/>
      </g>
     </g>
     <g id="line2d_15">
      <defs>
       <path d="
M0 0
L-4 0" id="mcb0005524f" style="stroke:#000000;stroke-width:0.5;"/>
      </defs>
      <g>
       <use style="stroke:#000000;stroke-width:0.5;" x="388.8" xlink:href="#mcb0005524f" y="240.2784"/>
      </g>
     </g>
     <g id="text_8">
      <!-- $1.0$ -->
      <g transform="translate(35.0423582464 243.578007672)scale(0.12 -0.12)">
       <use transform="scale(0.996264009963)" xlink:href="#CMR17-49"/>
       <use transform="translate(45.6904771171 0.0)scale(0.996264009963)" xlink:href="#CMMI12-58"/>
       <use transform="translate(72.7876542069 0.0)scale(0.996264009963)" xlink:href="#CMR17-48"/>
      </g>
     </g>
    </g>
    <g id="ytick_2">
     <g id="line2d_16">
      <g>
       <use style="stroke:#000000;stroke-width:0.5;" x="54.0" xlink:href="#m728421d6d4" y="193.5576"/>
      </g>
     </g>
     <g id="line2d_17">
      <g>
       <use style="stroke:#000000;stroke-width:0.5;" x="388.8" xlink:href="#mcb0005524f" y="193.5576"/>
      </g>
     </g>
     <g id="text_9">
      <!-- $1.5$ -->
      <defs>
       <path d="
M11.4062 57.6875
C12.4062 57.2812 16.5 56 20.7031 56
C30 56 35.0938 61.0156 38 63.9219
C38 64.7344 38 65.25 37.4062 65.25
C37.2969 65.25 37.0938 65.25 36.2969 64.8281
C32.7969 63.3125 28.7031 62.0781 23.7031 62.0781
C20.7031 62.0781 16.2031 62.5 11.2969 64.7344
C10.2031 65.25 10 65.25 9.90625 65.25
C9.40625 65.25 9.29688 65.1406 9.29688 63.1562
L9.29688 34.2812
C9.29688 32.5 9.29688 32 10.2969 32
C10.7969 32 11 32.2031 11.5 32.9062
C14.7031 37.4844 19.0938 39.4062 24.0938 39.4062
C27.5938 39.4062 35.0938 37.2188 35.0938 20.1406
C35.0938 16.9531 35.0938 11.1719 32.0938 6.57812
C29.5938 2.48438 25.7031 0.390625 21.4062 0.390625
C14.7969 0.390625 8.09375 5 6.29688 12.7188
C6.70312 12.6094 7.5 12.4219 7.90625 12.4219
C9.20312 12.4219 11.7031 13.125 11.7031 16.2188
C11.7031 18.9062 9.79688 20 7.90625 20
C5.59375 20 4.09375 18.5938 4.09375 15.7969
C4.09375 7.09375 11 -2 21.5938 -2
C31.9062 -2 41.7031 6.875 41.7031 19.75
C41.7031 31.7188 33.9062 41 24.2031 41
C19.0938 41 14.7969 39.0938 11.4062 35.4531
z
" id="CMR17-53"/>
      </defs>
      <g transform="translate(35.0423582464 196.857207672)scale(0.12 -0.12)">
       <use transform="scale(0.996264009963)" xlink:href="#CMR17-49"/>
       <use transform="translate(45.6904771171 0.0)scale(0.996264009963)" xlink:href="#CMMI12-58"/>
       <use transform="translate(72.7876542069 0.0)scale(0.996264009963)" xlink:href="#CMR17-53"/>
      </g>
     </g>
    </g>
    <g id="ytick_3">
     <g id="line2d_18">
      <g>
       <use style="stroke:#000000;stroke-width:0.5;" x="54.0" xlink:href="#m728421d6d4" y="146.8368"/>
      </g>
     </g>
     <g id="line2d_19">
      <g>
       <use style="stroke:#000000;stroke-width:0.5;" x="388.8" xlink:href="#mcb0005524f" y="146.8368"/>
      </g>
     </g>
     <g id="text_10">
      <!-- $2.0$ -->
      <g transform="translate(35.0423582464 150.136407672)scale(0.12 -0.12)">
       <use transform="scale(0.996264009963)" xlink:href="#CMR17-50"/>
       <use transform="translate(45.6904771171 0.0)scale(0.996264009963)" xlink:href="#CMMI12-58"/>
       <use transform="translate(72.7876542069 0.0)scale(0.996264009963)" xlink:href="#CMR17-48"/>
      </g>
     </g>
    </g>
    <g id="ytick_4">
     <g id="line2d_20">
      <g>
       <use style="stroke:#000000;stroke-width:0.5;" x="54.0" xlink:href="#m728421d6d4" y="100.116"/>
      </g>
     </g>
     <g id="line2d_21">
      <g>
       <use style="stroke:#000000;stroke-width:0.5;" x="388.8" xlink:href="#mcb0005524f" y="100.116"/>
      </g>
     </g>
     <g id="text_11">
      <!-- $2.5$ -->
      <g transform="translate(35.0423582464 103.415607672)scale(0.12 -0.12)">
       <use transform="scale(0.996264009963)" xlink:href="#CMR17-50"/>
       <use transform="translate(45.6904771171 0.0)scale(0.996264009963)" xlink:href="#CMMI12-58"/>
       <use transform="translate(72.7876542069 0.0)scale(0.996264009963)" xlink:href="#CMR17-53"/>
      </g>
     </g>
    </g>
    <g id="ytick_5">
     <g id="line2d_22">
      <g>
       <use style="stroke:#000000;stroke-width:0.5;" x="54.0" xlink:href="#m728421d6d4" y="53.3952"/>
      </g>
     </g>
     <g id="line2d_23">
      <g>
       <use style="stroke:#000000;stroke-width:0.5;" x="388.8" xlink:href="#mcb0005524f" y="53.3952"/>
      </g>
     </g>
     <g id="text_12">
      <!-- $3.0$ -->
      <defs>
       <path d="
M22.0938 33.7031
C31 33.7031 34.9062 25.9688 34.9062 17.0312
C34.9062 5 28.5 0.390625 22.7031 0.390625
C17.4062 0.390625 8.79688 3.03125 6.09375 10.8281
C6.59375 10.625 7.09375 10.625 7.59375 10.625
C10 10.625 11.7969 12.2188 11.7969 14.8125
C11.7969 17.7031 9.59375 19 7.59375 19
C5.90625 19 3.29688 18.2031 3.29688 14.4688
C3.29688 5.23438 12.2969 -2 22.9062 -2
C34 -2 42.5 6.71875 42.5 16.9531
C42.5 26.6719 34.5 33.6875 25 34.7969
C32.5938 36.375 39.9062 43.0625 39.9062 52.0156
C39.9062 59.6875 32 65.2969 23 65.2969
C13.9062 65.2969 5.90625 59.8281 5.90625 52.0156
C5.90625 48.5938 8.5 48 9.79688 48
C11.9062 48 13.7031 49.2969 13.7031 51.8906
C13.7031 54.4688 11.9062 55.7656 9.79688 55.7656
C9.40625 55.7656 8.90625 55.7656 8.5 55.5625
C11.4062 61.8594 19.2969 63 22.7969 63
C26.2969 63 32.9062 61.3281 32.9062 51.875
C32.9062 49.1094 32.5 44.1875 29.0938 39.8438
C26.0938 36 22.7031 36 19.4062 35.5938
C18.9062 35.5938 16.5938 35.5938 16.2031 35.5938
C15.5 35.4844 15.0938 35.3906 15.0938 34.5938
C15.0938 33.8125 15.2031 33.7031 17.2031 33.7031
z
" id="CMR17-51"/>
      </defs>
      <g transform="translate(35.0423582464 56.6948076724)scale(0.12 -0.12)">
       <use transform="scale(0.996264009963)" xlink:href="#CMR17-51"/>
       <use transform="translate(45.6904771171 0.0)scale(0.996264009963)" xlink:href="#CMMI12-58"/>
       <use transform="translate(72.7876542069 0.0)scale(0.996264009963)" xlink:href="#CMR17-48"/>
      </g>
     </g>
    </g>
    <g id="text_13">
     <!-- \textit{voltage} (mV) -->
     <defs>
      <path d="
M22.2031 47
L3.70312 45.5156
L3.40625 41.9375
L5.09375 41.9375
C9 41.9375 10.7969 41.0312 10.7969 39.0469
C10.7969 38.3438 10.4062 36.2656 9.79688 34.4844
L6.40625 23.0469
C5.20312 18.9688 4.5 14.7969 4.5 11.7188
C4.5 4.35938 10 -1.29688 17.2031 -1.29688
C24.2031 -1.29688 30.4062 3.0625 35.7969 11.625
C40.7969 19.6719 44.5 31.3906 44.5 39.1406
C44.5 43.5156 41.7969 47 38.2969 47
C35.7969 47 33.7969 44.7188 33.7969 42.0312
C33.7969 40.4531 34.4062 39.1406 35.9062 37.4688
C38.2969 34.7812 38.7031 34 38.7031 31.8125
C38.7031 28.4219 36.9062 22.2656 34.2969 17
C30.4062 8.96875 24.7969 4 19.5938 4
C15.9062 4 13 7.375 13 11.75
C13 14.9219 13.5938 18.1094 15.4062 24.0625
z
" id="Century_Schoolbook_L_Italic-118"/>
      <path d="
M39.5938 45.5
L36.9062 36.5469
C36.2031 42.7188 31.2031 47 24.7031 47
C18.5938 47 12.9062 43.8281 8.20312 37.875
C3.09375 31.3281 0.09375 23 0.09375 15.0625
C0.09375 5.35938 6 -1.09375 14.9062 -1.09375
C21.0938 -1.09375 25.0938 1.39062 30.0938 8.5625
C29.7031 7.0625 29.5938 6.375 29.5938 5.375
C29.5938 1.48438 32.0938 -1.09375 35.7031 -1.09375
C40.0938 -1.09375 43.9062 1.29688 47.4062 6.15625
C49.4062 8.92188 51.0938 11.7188 52.2969 14.3906
L49.2031 16.0781
C45.4062 8.5625 41.9062 4.40625 39.2969 4.40625
C38.2031 4.40625 37.2031 5.48438 37.2031 6.875
C37.2031 7.875 37.5938 9.76562 38.2969 12.2344
L48.2969 45.5
z

M26.4062 41.5
C31.0938 41.5 34 38.125 34 32.6875
C34 27.0625 32 19.1406 28.9062 12.9062
C25.7969 6.78125 22.2031 4 17.2031 4
C12.2031 4 9.20312 7.65625 9.20312 13.7031
C9.20312 22.4062 13.0938 32.6875 18.4062 38.0312
C20.5938 40.3125 23.4062 41.5 26.4062 41.5" id="Century_Schoolbook_L_Italic-97"/>
      <path d="
M29.4062 74.1094
L9.5 72.6094
L9.09375 69
L12.2031 69
C16.2969 69 17.9062 68.1094 17.9062 65.9062
C17.9062 64.9062 17.5938 63.5 17 61.5156
L4.29688 18.6719
C1.90625 10.6875 1.59375 9.07812 1.59375 5.98438
C1.59375 1.70312 4.09375 -1 8.09375 -1
C14.4062 -1 20.7969 4.29688 26.7969 14.4844
L23.7031 16.1719
C18.7031 8.48438 14.2031 4.09375 11.4062 4.09375
C10.2969 4.09375 9.59375 5 9.59375 6.20312
C9.59375 7.29688 9.59375 7.40625 10.9062 11.6875
z
" id="Century_Schoolbook_L_Italic-108"/>
      <path d="
M20.0938 46
L2.29688 46
L2.29688 41.2188
L6.40625 41.2188
C10.0938 41.2188 10.7031 40.5156 10.7031 36.2031
L10.7031 12.2969
L10.7031 8.40625
C10.7031 4.29688 9.59375 3.59375 3.20312 3.59375
L2.79688 3.59375
L2.79688 0
L28 0
L28 3.59375
L27.5938 3.59375
C21.2031 3.59375 20.0938 4.29688 20.0938 8.39062
L20.0938 12.2812
L20.0938 26.4531
C20.0938 35.3281 25 41.9219 31.5 41.9219
C34.0938 41.9219 36.9062 40.5156 38.0938 38.625
C39.5 36.7344 40.0938 33.8281 40.0938 29.7344
L40.0938 12.2812
L40.0938 8.28125
C40.0938 4.29688 39 3.59375 32.5 3.59375
L32.0938 3.59375
L32.0938 0
L57.4062 0
L57.4062 3.59375
L57 3.59375
C50.5938 3.59375 49.5 4.29688 49.5 8.28125
L49.5 12.2812
L49.5 25.5469
C49.5 35.5312 54 41.9219 61 41.9219
C64.2969 41.9219 67 40.0156 68.2969 36.9219
C69.2031 34.7344 69.5 32.5312 69.5 28.6406
L69.5 12.2812
L69.5 8.28125
C69.5 4.29688 68.4062 3.59375 61.9062 3.59375
L61.5 3.59375
L61.5 0
L86.7969 0
L86.7969 3.59375
L86.4062 3.59375
C80 3.59375 78.9062 4.29688 78.9062 8.39062
L78.9062 12.2812
L78.9062 30.6406
C78.9062 36.8281 78.2969 38.9219 75.7031 42.3125
C72.7969 46.0156 68.7031 48 63.9062 48
C57.4062 48 52.5938 44.9375 48.2969 38.1094
C46.5938 44.0469 41.2031 48 34.5 48
C28.5 48 24 45.1406 20.0938 38.9219
z
" id="Century_Schoolbook_L_Roman-109"/>
      <path d="
M27.2969 47
C20.7969 47 14.2969 43.9844 8.90625 38.3594
C3.40625 32.6094 0.5 25.375 0.5 17.0156
C0.5 5.54688 7.40625 -1.79688 18.2969 -1.79688
C25.5 -1.79688 31.7031 1.01562 36.5 6.45312
C41.7969 12.5 45 20.5469 45 27.9844
C45 38.4531 37 47 27.2969 47
M26.7969 43.2031
C32.2969 43.2031 35.5 38.5625 35.5 30.8125
C35.5 25.5781 33.5 17.5156 30.7969 11.9844
C27.4062 5.01562 23.7031 2 18.4062 2
C12.5938 2 9.5 5.73438 9.5 12.5781
C9.5 20.9375 12.9062 32.2188 17 37.75
C19.7969 41.3906 23 43.2031 26.7969 43.2031" id="Century_Schoolbook_L_Italic-111"/>
      <path d="
M38.2031 43.2031
C39.7969 44.5938 40.7031 45.0938 41.9062 45.0938
C42.9062 45.0938 43.7031 44.6094 44.5 43.5312
C46.0938 41.375 46.7031 41 48.2969 41
C50.5 41 52.2969 42.8906 52.2969 45.3906
C52.2969 48.1875 49.5 50.5938 46 50.5938
C42.5 50.5938 39.7969 49.2812 34.5938 45.0938
C31.4062 46.5 29.2031 47 26 47
C15 47 5.5 39.125 5.5 29.9688
C5.5 25.1719 7.40625 21.875 11.7031 19.5938
C7.09375 19 5 18.3125 2.70312 16.3125
C0.703125 14.7188 -0.59375 12.0469 -0.59375 9.65625
C-0.59375 6.26562 1 4.1875 4.90625 2.29688
C0.703125 1.40625 -0.90625 0.796875 -3 -0.5
C-6 -2.29688 -7.90625 -5.5 -7.90625 -8.79688
C-7.90625 -11.5938 -6.5 -14.3906 -4.29688 -16.0938
C-0.296875 -18.8906 4.29688 -20 12.5938 -20
C22.5 -20 28.2031 -18.7812 33.0938 -15.5312
C37.4062 -12.6875 39.9062 -8.34375 39.9062 -3.5625
C39.9062 0.390625 38 3.73438 34.7031 5.5625
C31.5 7.28125 28.2969 8 21.5 8
C12.7031 8 11.9062 8.10938 10.5 8.42188
C8.09375 9.04688 6.79688 10.3125 6.79688 12.0938
C6.79688 14.5156 9.29688 16.2969 12.7969 16.2969
C14.0938 16.2969 15.5 16.1875 16.9062 16
C21 15.3906 21.5938 15.2969 24.0938 15.2969
C29.7031 15.2969 34.0938 16.6875 37.5938 19.4844
C41.5 22.5625 44.0938 27.6406 44.0938 32.125
C44.0938 36.7188 42.0938 40.4219 38.2031 43.2031
M26.7031 43.2031
C31.9062 43.2031 35.2031 40.1094 35.2031 35.2344
C35.2031 30.5469 33.5938 25.4688 31.0938 22.375
C29.2969 20.2969 26.5 19 23.4062 19
C18 19 14.5938 22.375 14.5938 27.9688
C14.5938 36.9375 19.5 43.2031 26.7031 43.2031
M14.5 0.5
C19 0.5 26.2031 -0.5 28.5 -1.5
C31 -2.5 32.2031 -4.20312 32.2031 -6.70312
C32.2031 -12.5938 25.7969 -15.7969 14.4062 -15.7969
C4.79688 -15.7969 0.203125 -13.2969 0.203125 -8.09375
C0.203125 -2.70312 5.5 0.5 14.5 0.5" id="Century_Schoolbook_L_Italic-103"/>
      <path d="
M26.9062 62.5
L18.2031 62.5
L13.2969 46
L3.90625 46
L2.5 41.2969
L11.9062 41.2969
L4.40625 16.0938
C3 11.0938 2.5 8.79688 2.5 6.59375
C2.5 2.40625 5.70312 -1 9.70312 -1
C14.4062 -1 20 2.09375 23.5 6.79688
C24.9062 8.70312 25.9062 10.2969 28.5 14.5
L25.5 16.5
C19.2969 7.09375 16.4062 4.29688 13.0938 4.29688
C11.7031 4.29688 10.7969 5.40625 10.7969 7.09375
C10.7969 7.90625 10.9062 8.59375 11.0938 9.40625
L20.5938 41.2969
L31.5 41.2969
L32.9062 46
L22 46
z
" id="Century_Schoolbook_L_Italic-116"/>
      <path d="
M33.9062 11.4375
C28 5.3125 23.5938 3 18.4062 3
C12.4062 3 8.70312 7.01562 8.70312 13.4375
C8.70312 14.1406 8.79688 15.5625 8.90625 16.8594
C20.5938 19.6719 22.5938 20.2812 27.0938 22.2969
C34.7969 25.7031 39.0938 30.8281 39.0938 36.6562
C39.0938 42.7812 34.2031 47 27.2031 47
C12.5938 47 -0.59375 32.0312 -0.59375 15.6719
C-0.59375 4.82812 5.90625 -1.70312 16.7031 -1.70312
C24.4062 -1.70312 30.9062 1.71875 36.2969 8.73438
z

M9.40625 20.7812
C11.7031 34.3594 17.7969 43 25.2031 43
C28.5 43 30.7031 40.6875 30.7031 37.2656
C30.7031 31.7344 26.7969 27 19.5938 23.7969
C16.7031 22.4844 15 21.9688 9.40625 20.7812" id="Century_Schoolbook_L_Italic-101"/>
      <path d="
M39.2969 15.3125
L21 61.7969
C20.5 63.0156 20.2031 64.2188 20.2031 64.8125
C20.2031 66.6094 21.9062 67.3125 26.4062 67.3125
L30.4062 67.3125
L30.4062 72
L-0.796875 72
L-0.796875 67.3125
L1.20312 67.3125
C5.70312 67.3125 7 66.3125 8.90625 61.7031
L34.2031 -1.6875
L38.2031 -1.6875
L61.2031 57.5156
C64.2031 65.3125 66.4062 67.3125 72.0938 67.3125
L73.0938 67.3125
L73.0938 72
L46 72
L46 67.3125
L47.9062 67.3125
C53 67.3125 56 65.3125 56 62.0938
C56 60.7031 55.5 58.4062 54.7969 56.5156
z
" id="Century_Schoolbook_L_Roman-86"/>
     </defs>
     <g transform="translate(27.0137679503 193.174591813)rotate(-90.0)scale(0.16 -0.16)">
      <use transform="scale(0.996264009963)" xlink:href="#Century_Schoolbook_L_Italic-118"/>
      <use transform="translate(51.7055335704 0.0)scale(0.996264009963)" xlink:href="#Century_Schoolbook_L_Italic-111"/>
      <use transform="translate(101.518734069 0.0)scale(0.996264009963)" xlink:href="#Century_Schoolbook_L_Italic-108"/>
      <use transform="translate(134.693963798 0.0)scale(0.996264009963)" xlink:href="#Century_Schoolbook_L_Italic-116"/>
      <use transform="translate(169.761435389 0.0)scale(0.996264009963)" xlink:href="#Century_Schoolbook_L_Italic-97"/>
      <use transform="translate(226.946922673 0.0)scale(0.996264009963)" xlink:href="#Century_Schoolbook_L_Italic-103"/>
      <use transform="translate(280.446266564 0.0)scale(0.996264009963)" xlink:href="#Century_Schoolbook_L_Italic-101"/>
      <use transform="translate(352.375004865 0.0)scale(0.996264009963)" xlink:href="#Century_Schoolbook_L_Roman-40"/>
      <use transform="translate(385.550234594 0.0)scale(0.996264009963)" xlink:href="#Century_Schoolbook_L_Roman-109"/>
      <use transform="translate(474.117141287 0.0)scale(0.996264009963)" xlink:href="#Century_Schoolbook_L_Roman-86"/>
      <use transform="translate(546.047126133 0.0)scale(0.996264009963)" xlink:href="#Century_Schoolbook_L_Roman-41"/>
     </g>
    </g>
   </g>
   <g id="patch_3">
    <path d="
M54 53.3952
L388.8 53.3952" style="fill:none;stroke:#000000;"/>
   </g>
   <g id="patch_4">
    <path d="
M388.8 240.278
L388.8 53.3952" style="fill:none;stroke:#000000;"/>
   </g>
   <g id="patch_5">
    <path d="
M54 240.278
L388.8 240.278" style="fill:none;stroke:#000000;"/>
   </g>
   <g id="patch_6">
    <path d="
M54 240.278
L54 53.3952" style="fill:none;stroke:#000000;"/>
   </g>
   <g id="text_14">
    <!-- \TeX\ is Number $\displaystyle\sum_{n=1}^\infty\frac{-e^{i\pi}}{2^n}$! -->
    <defs>
     <path d="
M46.5 23
C46.5938 37.8125 38.0938 48.2812 25.9062 48.2812
C13.0938 48.2812 3.5 37.25 3.5 22.3438
C3.5 8.4375 12.5938 -1 26.0938 -1
C35.5938 -1 42.4062 3.6875 46.5 13.1875
L43 15.0938
C38.9062 7.39062 34.7031 4.39062 28 4.39062
C22.9062 4.39062 19.2031 6.59375 16.5938 11
C14.7969 14 14 17.5 14.0938 23
z

M14.2031 27.2969
C14.2031 30.3438 14.5938 32.5 15.5938 35.25
C17.7031 41.1406 20.9062 44 25.7031 44
C31.7969 44 35.7969 38.7812 35.7969 30.9219
C35.7969 28.0781 34.9062 27.2969 31.7031 27.2969
z
" id="Century_Schoolbook_L_Roman-101"/>
     <path d="
M41.2031 0
L59.4062 0
L59.4062 4.70312
L56.9062 4.70312
C51.4062 4.70312 50.5938 5.59375 50.5938 11.9531
L50.5938 46.7812
L31.7969 46.7812
L31.7969 42
L36.9062 42
C40.5938 42 41.2031 41.2969 41.2031 36.9531
L41.2031 24.5625
C41.2031 18.8125 40.5938 15.4844 39.0938 12.1562
C37 7.71875 33 5.09375 28.0938 5.09375
C25 5.09375 22.4062 6.1875 21.0938 8.17188
C19.7969 10.0469 19.5938 11.0469 19.5938 16.5
L19.5938 46.7812
L2.09375 46.7812
L2.09375 42
L5.90625 42
C9.59375 42 10.2031 41.2969 10.2031 36.9531
L10.2031 15.2188
C10.2031 10.0781 10.5938 7.76562 12.0938 5.45312
C14.7969 1.3125 19.5938 -1 25.5938 -1
C32.2031 -1 36.7969 1.71875 41.2031 8.125
z
" id="Century_Schoolbook_L_Roman-117"/>
     <path d="
M19.7969 46
L2.09375 46
L2.09375 41.2188
L6.20312 41.2188
C9.90625 41.2188 10.5 40.5156 10.5 36.2031
L10.5 12.2969
L10.5 8.29688
C10.5 4.29688 9.40625 3.59375 2.90625 3.59375
L2.5 3.59375
L2.5 0
L29.2031 0
L29.2031 3.59375
L27.2969 3.59375
C20.9062 3.59375 19.7969 4.29688 19.7969 8.29688
L19.7969 12.2969
L19.7969 13.2969
C19.7969 20.8125 21.2031 28.4062 23.7031 34.1094
C26.0938 39.7031 29.5 42.8125 33.7031 43.3125
C32.2969 41.7031 31.9062 40.6875 31.9062 38.7656
C31.9062 35.5469 34.2031 33.2344 37.4062 33.2344
C41 33.2344 43.5 35.9375 43.5 40.0156
C43.5 44.8125 40.0938 48 34.7969 48
C28.5 48 23 42.9219 19.7969 34.1406
z
" id="Century_Schoolbook_L_Roman-114"/>
     <path d="
M20.5938 46
L1.79688 46
L1.79688 41.2188
L6.90625 41.2188
C10.5938 41.2188 11.2031 40.5156 11.2031 36.2031
L11.2031 12.2969
L11.2031 8.29688
C11.2031 4.29688 10.0938 3.59375 3.70312 3.59375
L3 3.59375
L3 0
L28.9062 0
L28.9062 3.59375
L28.2031 3.59375
C21.7031 3.59375 20.5938 4.28125 20.5938 8.21875
L20.5938 12.1719
z

M15.9062 71.5781
C12.7031 71.5781 10.0938 68.9844 10.0938 65.7969
C10.0938 62.7031 12.7031 60 15.7969 60
C19.0938 60 21.7031 62.5938 21.7031 65.7969
C21.7031 68.9844 19.0938 71.5781 15.9062 71.5781" id="Century_Schoolbook_L_Roman-105"/>
     <path d="
M28.2969 14.2656
C28.2969 14.7656 27.9062 15.1719 27.2969 15.1719
C26.4062 15.1719 26.2969 14.875 25.7969 13.1719
C23.2031 4.09375 19.0938 1 15.7969 1
C14.5938 1 13.2031 1.29688 13.2031 4.29688
C13.2031 6.98438 14.4062 9.98438 15.5 12.9688
L22.5 31.5312
C22.7969 32.3281 23.5 34.125 23.5 36.0156
C23.5 40.2188 20.5 44 15.5938 44
C6.40625 44 2.70312 29.5312 2.70312 28.7344
C2.70312 28.3438 3.09375 27.8438 3.79688 27.8438
C4.70312 27.8438 4.79688 28.2344 5.20312 29.625
C7.59375 37.9375 11.4062 41.9062 15.2969 41.9062
C16.2031 41.9062 17.9062 41.9062 17.9062 38.7188
C17.9062 36.125 16.5938 32.8281 15.7969 30.6406
L8.79688 12.0781
C8.20312 10.4844 7.59375 8.875 7.59375 7.07812
C7.59375 2.59375 10.7031 -1 15.5 -1
C24.7031 -1 28.2969 13.5781 28.2969 14.2656
M27.5 62.7031
C27.5 64.2031 26.2969 66 24.0938 66
C21.7969 66 19.2031 63.7969 19.2031 61.2031
C19.2031 58.7188 21.2969 57.9219 22.5 57.9219
C25.2031 57.9219 27.5 60.5156 27.5 62.7031" id="CMMI12-105"/>
     <path d="
M38.9062 39.8906
L52.2031 57.9375
C57.7969 65.4062 60.5938 67.3125 65.9062 67.3125
L67.5 67.3125
L67.5 72
L40 72
L40 67.3125
L41.4062 67.3125
C46.2031 67.3125 48.2969 66.1094 48.2969 63.4062
C48.2969 62.3125 48 61.6094 46.9062 60.0312
L36.0938 44.375
L22.7969 63.5156
C22.0938 64.5156 21.7031 65.5156 21.7031 66.0156
C21.7031 67 22.7031 67.3125 26.5 67.3125
L30.2969 67.3125
L30.2969 72
L-0.59375 72
L-0.59375 67.3125
L1.09375 67.3125
C6 67.3125 7.20312 66.8125 9.5 63.5156
L29.2031 35.1094
L13 12.6719
C9.09375 7.09375 5 4.6875 -0.09375 4.6875
L-0.5 4.6875
L-0.5 0
L27.9062 0
L27.9062 4.6875
L25.4062 4.6875
C21.4062 4.6875 18.9062 6.48438 18.9062 9.48438
C18.9062 10.7812 19.5 12.3594 20.5 13.8594
L32.0938 30.6094
L47 9.48438
C47.7969 8.29688 48.2969 7.17188 48.2969 6.375
C48.2969 4.78125 47.9062 4.6875 41.5938 4.6875
L38.7969 4.6875
L38.7969 0
L71.5938 0
L71.5938 4.6875
L70.4062 4.6875
C64 4.6875 63.2969 4.98438 59.9062 9.875
z
" id="Century_Schoolbook_L_Roman-88"/>
     <path d="
M64.2969 31.5156
C65.7969 31.5156 67.2969 31.5156 67.2969 33.2031
C67.2969 35 65.5938 35 63.9062 35
L8 35
C6.29688 35 4.59375 35 4.59375 33.2031
C4.59375 31.5156 6.09375 31.5156 7.59375 31.5156
z

M63.9062 14
C65.5938 14 67.2969 14 67.2969 15.7969
C67.2969 17.4844 65.7969 17.4844 64.2969 17.4844
L7.59375 17.4844
C6.09375 17.4844 4.59375 17.4844 4.59375 15.7969
C4.59375 14 6.29688 14 8 14
z
" id="CMR17-61"/>
     <path d="
M22.5 72
L1.90625 72
L1.90625 67.3125
L4.40625 67.3125
C9.5 67.3125 11.7969 66.5 13.5938 64.0156
L13.5938 21.5
C13.5938 7.78125 11.5938 4.89062 2 4.89062
L2 0
L30.5 0
L30.5 4.89062
C21 4.89062 19 7.79688 19 21.5
L19 58.6406
L63.5938 -1.6875
L67.7969 -1.6875
L67.7969 50.5938
C67.7969 64.3906 69.7969 67.3125 79.4062 67.3125
L79.4062 72
L50.9062 72
L50.9062 67.3125
C60.4062 67.3125 62.4062 64.4062 62.4062 50.625
L62.4062 19.0469
z
" id="Century_Schoolbook_L_Roman-78"/>
     <path d="
M63.2969 72
L3.40625 72
L1.90625 44.2656
L6.20312 44.2656
C6.90625 49.25 7.79688 53.0469 8.90625 56.2344
C11.5 63.5156 16.2969 67.3125 23.0938 67.3125
C26.4062 67.3125 27.7969 66.2031 27.7969 63.7188
L27.7969 12.2812
L27.7969 9.375
C27.7969 5.1875 26.9062 4.6875 18.7969 4.6875
L16.2031 4.6875
L16.2031 0
L50.5 0
L50.5 4.6875
L47.9062 4.6875
C39.9062 4.6875 39 5.1875 39 9.375
L39 12.2812
L39 63.7188
C39 66.2031 40.4062 67.3125 43.7031 67.3125
C49.7969 67.3125 54.7031 63.9062 57.2031 57.9219
C58.7031 54.25 59.7031 49.9531 60.5 44.2656
L64.7969 44.2656
z
" id="Century_Schoolbook_L_Roman-84"/>
     <path d="
M20.5938 29.2344
C20.7969 29.8438 23.2969 34.8281 27 38.0156
C29.5938 40.4062 33 42.0156 36.9062 42.0156
C40.9062 42.0156 42.2969 39.0156 42.2969 35.0312
C42.2969 29.3438 38.2031 17.9688 36.2031 12.5781
C35.2969 10.1719 34.7969 8.875 34.7969 7.07812
C34.7969 2.59375 37.9062 -1 42.7031 -1
C52 -1 55.5 13.6719 55.5 14.2656
C55.5 14.7656 55.0938 15.1719 54.5 15.1719
C53.5938 15.1719 53.5 14.875 53 13.1719
C50.7031 4.98438 46.9062 1 43 1
C42 1 40.4062 1 40.4062 4.20312
C40.4062 6.70312 41.5 9.70312 42.0938 11.0938
C44.0938 16.6094 48.2969 27.8125 48.2969 33.5156
C48.2969 39.5 44.7969 44 37.2031 44
C28.2969 44 23.5938 37.7344 21.7969 35.2344
C21.5 40.9062 17.4062 44 13 44
C9.79688 44 7.59375 42.1094 5.90625 38.7188
C4.09375 35.125 2.70312 29.1406 2.70312 28.7344
C2.70312 28.3438 3.09375 27.8438 3.79688 27.8438
C4.59375 27.8438 4.70312 27.9375 5.29688 30.2344
C6.90625 36.3281 8.70312 42.0156 12.7031 42.0156
C15 42.0156 15.7969 40.4062 15.7969 37.4219
C15.7969 35.2188 14.7969 31.3281 14.0938 28.2344
L11.2969 17.4688
C10.9062 15.5625 9.79688 11.0781 9.29688 9.28125
C8.59375 6.6875 7.5 2 7.5 1.5
C7.5 0.09375 8.59375 -1 10.0938 -1
C11.2969 -1 12.7031 -0.40625 13.5 1.09375
C13.7031 1.59375 14.5938 5.09375 15.0938 7.07812
L17.2969 16.0625
z
" id="CMMI12-110"/>
     <path d="
M17.9062 23.1094
C20.5938 23.1094 27.4062 23.1094 32.2031 24.9219
C39.7969 27.8594 40.5 33.7188 40.5 35.5312
C40.5 39.9688 36.7031 44 30.0938 44
C19.5938 44 4.5 34.5312 4.5 16.7656
C4.5 6.28125 10.5 -1 19.5938 -1
C33.2031 -1 41.7969 9.53125 41.7969 10.8125
C41.7969 11.4062 41.2031 11.9062 40.7969 11.9062
C40.5 11.9062 40.4062 11.8125 39.5 10.9219
C33.0938 2.48438 23.5938 1 19.7969 1
C14.0938 1 11.0938 5.46875 11.0938 12.8438
C11.0938 14.2344 11.0938 16.7344 12.5938 23.1094
z

M13.0938 25
C17.4062 40.5 26.9062 42.0156 30.0938 42.0156
C34.5 42.0156 37.5 39.4062 37.5 35.5781
C37.5 25 21.5 25 17.2969 25
z
" id="CMMI12-101"/>
     <path d="
M16.9062 19.6094
C17 37.1719 17.4062 42.1719 19.2969 51.5469
C20.7031 58.5312 21.0938 61.625 21.0938 64.5156
C21.0938 70.9062 19.0938 74 15 74
C10.9062 74 8.79688 70.8125 8.79688 64.625
C8.79688 61.625 9.20312 58.5312 10.5938 51.5469
C12.5 42.1719 12.7969 37.4688 13 19.6094
z

M15 11.4688
C11.5 11.4688 8.70312 8.67188 8.70312 5.28125
C8.70312 1.78125 11.5 -1 14.9062 -1
C18.4062 -1 21.2031 1.78125 21.2031 5.28125
C21.2031 8.67188 18.4062 11.4688 15 11.4688" id="Century_Schoolbook_L_Roman-33"/>
     <path d="
M65.9062 23
C67.5938 23 69.4062 23 69.4062 25
C69.4062 27 67.5938 27 65.9062 27
L11.7969 27
C10.0938 27 8.29688 27 8.29688 25
C8.29688 23 10.0938 23 11.7969 23
z
" id="CMSY10-0"/>
     <path d="
M63 72
L2.90625 72
L2.90625 67.3125
L4.70312 67.3125
C12.7969 67.3125 13.7031 66.8125 13.7031 62.6094
L13.7031 59.7188
L13.7031 12.2812
L13.7031 9.375
C13.7031 5.1875 12.7969 4.6875 4.70312 4.6875
L2.90625 4.6875
L2.90625 0
L64.2969 0
L66.2969 26.5
L61.9062 26.5
C60.5938 19.5625 58.2969 13.4062 55.9062 10.5469
C52.7969 6.57812 47.0938 4.6875 38.7031 4.6875
L32.0938 4.6875
C29.0938 4.6875 26.5938 5.29688 25.7031 6.1875
C25 6.78125 24.9062 7.39062 24.9062 9.5
L24.9062 35
L26.9062 35
C33 35 35.5 34.375 37.5 32.2344
C40.0938 29.5781 41.0938 26.2969 41.2969 20.2656
L46 20.2656
L46 53
L41.2969 53
C40.7969 43.4688 36.7969 39.6875 27.2969 39.6875
L24.9062 39.6875
L24.9062 62.3281
C24.9062 66.6094 25.7969 67.3125 31.2031 67.3125
L36.4062 67.3125
C45.2031 67.3125 49.5 66.4062 52.9062 63.5938
C56.2031 61 58.5938 55.3906 60.0938 46.3906
L64.4062 46.3906
z
" id="Century_Schoolbook_L_Roman-69"/>
     <path d="
M126.594 -139.984
L138.703 -107.984
L136.203 -107.984
C132.297 -118.391 121.703 -125.188 110.203 -128.188
C108.094 -128.688 98.2969 -131.281 79.0938 -131.281
L18.7969 -131.281
L69.7031 -71.5781
C70.4062 -70.7812 70.5938 -70.4844 70.5938 -69.9844
C70.5938 -69.7812 70.5938 -69.4844 69.9062 -68.4844
L23.2969 -4.78125
L78.0938 -4.78125
C91.5 -4.78125 100.594 -6.1875 101.5 -6.39062
C106.906 -7.1875 115.594 -8.89062 123.5 -13.8906
C126 -15.4844 132.797 -19.9844 136.203 -28.0781
L138.703 -28.0781
L126.594 0.015625
L8.40625 0.015625
C6.09375 0.015625 6 -0.078125 5.70312 -0.6875
C5.59375 -0.984375 5.59375 -2.89062 5.59375 -3.98438
L58.5 -76.375
L6.70312 -137.078
C5.70312 -138.281 5.70312 -138.781 5.70312 -138.891
C5.70312 -139.984 6.59375 -139.984 8.40625 -139.984
z
" id="CMEX10-88"/>
     <path d="
M18 73
L0.796875 73
L0.796875 68.2188
L4.29688 68.2188
C8 68.2188 8.59375 67.5156 8.59375 63.25
L8.59375 24.625
C8.59375 11.3125 8.09375 4.84375 6.79688 -1
L10.5938 -1
L15.5 6.75
C19.5938 1.45312 24.2969 -1 30.5 -1
C42.7969 -1 52 9.59375 52 23.8281
C52 38.0781 43.5938 48.0781 31.5938 48.0781
C25.5 48.0781 21.7969 46 18 40.3281
z

M29.7969 43
C37.2969 43 41.5 35.7656 41.5 22.7969
C41.5 10.3125 37.4062 3.1875 30.0938 3.1875
C22.2031 3.1875 17.5 10.4062 17.5 22.5938
C17.5 35.7656 21.7969 43 29.7969 43" id="Century_Schoolbook_L_Roman-98"/>
     <path d="
M25.9062 37.625
L37.2031 37.625
C34.5 26.4375 32.7969 19.1562 32.7969 11.1875
C32.7969 9.78125 32.7969 -1 36.9062 -1
C39 -1 40.7969 0.890625 40.7969 2.60938
C40.7969 3.09375 40.7969 3.29688 40.0938 4.79688
C37.4062 11.6719 37.4062 20.25 37.4062 20.9531
C37.4062 21.5625 37.4062 28.6406 39.5 37.625
L50.7031 37.625
C52 37.625 55.2969 37.625 55.2969 40.8125
C55.2969 43 53.4062 43 51.5938 43
L18.7031 43
C16.4062 43 13 43 8.40625 38.125
C5.79688 35.2188 2.59375 29.9375 2.59375 29.3438
C2.59375 28.75 3.09375 28.5469 3.70312 28.5469
C4.40625 28.5469 4.5 28.8438 5 29.4375
C10.2031 37.625 15.4062 37.625 17.9062 37.625
L23.5938 37.625
C21.4062 30.1406 18.9062 21.4531 10.7031 4
C9.90625 2.40625 9.90625 2.1875 9.90625 1.59375
C9.90625 -0.5 11.7031 -1 12.5938 -1
C15.5 -1 16.2969 1.59375 17.5 5.78125
C19.0938 10.875 19.0938 11.0781 20.0938 15.0625
z
" id="CMMI12-25"/>
     <path d="
M50.7969 27.0625
C45.4062 33.8594 44.2031 35.3594 41.0938 37.8594
C35.5 42.3438 29.9062 44.1406 24.7969 44.1406
C13.0938 44.1406 5.5 33.1562 5.5 21.4688
C5.5 9.98438 12.9062 -1.09375 24.4062 -1.09375
C35.9062 -1.09375 44.2031 7.98438 49.0938 15.9688
C54.5 9.1875 55.7031 7.6875 58.7969 5.1875
C64.4062 0.703125 70 -1.09375 75.0938 -1.09375
C86.7969 -1.09375 94.4062 9.89062 94.4062 21.5625
C94.4062 33.0469 87 44.1406 75.5 44.1406
C64 44.1406 55.7031 35.0469 50.7969 27.0625
M53.4062 23.6562
C57.5 30.8594 64.9062 40.9375 76.2031 40.9375
C86.7969 40.9375 92.2031 30.5469 92.2031 21.5625
C92.2031 11.7656 85.5 3.6875 76.7031 3.6875
C70.9062 3.6875 66.4062 7.89062 64.2969 9.96875
C61.7969 12.6719 59.5 15.7656 53.4062 23.6562
M46.5 19.375
C42.4062 12.1875 35 2.09375 23.7031 2.09375
C13.0938 2.09375 7.70312 12.4844 7.70312 21.4688
C7.70312 31.25 14.4062 39.3438 23.2031 39.3438
C29 39.3438 33.5 35.1406 35.5938 33.0469
C38.0938 30.3594 40.4062 27.25 46.5 19.375" id="CMSY10-49"/>
    </defs>
    <g style="fill:#808080;" transform="translate(132.027611666 48.3952)scale(0.16 -0.16)">
     <use transform="translate(0.0 116.353636631)scale(0.996264009963)" xlink:href="#Century_Schoolbook_L_Roman-84"/>
     <use transform="translate(49.8420838847 93.2408010974)scale(0.996264009963)" xlink:href="#Century_Schoolbook_L_Roman-69"/>
     <use transform="translate(109.318768607 116.353636631)scale(0.996264009963)" xlink:href="#Century_Schoolbook_L_Roman-88"/>
     <use transform="translate(207.150112736 116.353636631)scale(0.996264009963)" xlink:href="#Century_Schoolbook_L_Roman-105"/>
     <use transform="translate(238.531425733 116.353636631)scale(0.996264009963)" xlink:href="#Century_Schoolbook_L_Roman-115"/>
     <use transform="translate(312.352405895 116.353636631)scale(0.996264009963)" xlink:href="#Century_Schoolbook_L_Roman-78"/>
     <use transform="translate(393.546919389 116.353636631)scale(0.996264009963)" xlink:href="#Century_Schoolbook_L_Roman-117"/>
     <use transform="translate(454.418550066 116.353636631)scale(0.996264009963)" xlink:href="#Century_Schoolbook_L_Roman-109"/>
     <use transform="translate(542.985456759 116.353636631)scale(0.996264009963)" xlink:href="#Century_Schoolbook_L_Roman-98"/>
     <use transform="translate(598.377133722 116.353636631)scale(0.996264009963)" xlink:href="#Century_Schoolbook_L_Roman-101"/>
     <use transform="translate(648.19033422 116.353636631)scale(0.996264009963)" xlink:href="#Century_Schoolbook_L_Roman-114"/>
     <use transform="translate(757.202482877 240.887276351)scale(0.697381766617)" xlink:href="#CMSY10-49"/>
     <use transform="translate(720.119072521 210.999264842)scale(0.996264009963)" xlink:href="#CMEX10-88"/>
     <use transform="translate(730.599591741 0.0)scale(0.697381766617)" xlink:href="#CMMI12-110"/>
     <use transform="translate(771.360434868 0.0)scale(0.697381766617)" xlink:href="#CMR17-61"/>
     <use transform="translate(821.560566333 0.0)scale(0.697381766617)" xlink:href="#CMR17-49"/>
     <use transform="translate(881.824186522 183.751681317)scale(0.996264009963)" xlink:href="#CMSY10-0"/>
     <use transform="translate(959.311654173 183.751681317)scale(0.996264009963)" xlink:href="#CMMI12-101"/>
     <use transform="translate(1004.52365519 219.905320259)scale(0.697381766617)" xlink:href="#CMMI12-105"/>
     <use transform="translate(1027.81856247 219.905320259)scale(0.697381766617)" xlink:href="#CMMI12-25"/>
     <use transform="translate(932.214325065 48.0147992392)scale(0.996264009963)" xlink:href="#CMR17-50"/>
     <use transform="translate(977.904802182 76.7957561488)scale(0.697381766617)" xlink:href="#CMMI12-110"/>
     <use transform="translate(1070.74942963 116.353636631)scale(0.996264009963)" xlink:href="#Century_Schoolbook_L_Roman-33"/>
     <path d="
M881.824 139.268
L1069.55 139.268
L1069.55 143.253
L881.824 143.253
L881.824 139.268
z
"/>
    </g>
   </g>
  </g>
 </g>
 <defs>
  <clipPath id="p2decfe96f9">
   <rect height="186.8832" width="334.8" x="54.0" y="53.3952"/>
  </clipPath>
 </defs>
</svg>
